<svg width="24" height="25" viewBox="0 0 24 25" fill="none" xmlns="http://www.w3.org/2000/svg">
<g clip-path="url(#clip0_1601_7812)">
<path d="M16.7729 0.262011C16.7219 0.205011 14.8844 0.284511 13.2854 2.02001C11.6864 3.75401 11.9324 5.74301 11.9684 5.79401C12.0044 5.84501 14.2484 5.92451 15.6809 3.90701C17.1134 1.88951 16.8239 0.320511 16.7729 0.262011ZM21.7439 17.8615C21.6719 17.7175 18.2564 16.0105 18.5744 12.7285C18.8924 9.44501 21.0869 8.54501 21.1214 8.44751C21.1559 8.35001 20.2259 7.26251 19.2404 6.71201C18.5168 6.32389 17.716 6.10152 16.8959 6.06101C16.7339 6.05651 16.1714 5.91851 15.0149 6.23501C14.2529 6.44351 12.5354 7.11851 12.0629 7.14551C11.5889 7.17251 10.1789 6.36251 8.66239 6.14801C7.69189 5.96051 6.66289 6.34451 5.92639 6.64001C5.19139 6.93401 3.79339 7.77101 2.81539 9.99551C1.83739 12.2185 2.34889 15.7405 2.71489 16.8355C3.08089 17.929 3.65239 19.7215 4.62439 21.0295C5.48839 22.5055 6.63439 23.53 7.11289 23.878C7.59139 24.226 8.94139 24.457 9.87739 23.9785C10.6304 23.5165 11.9894 23.251 12.5264 23.2705C13.0619 23.29 14.1179 23.5015 15.1994 24.079C16.0559 24.3745 16.8659 24.2515 17.6774 23.9215C18.4889 23.59 19.6634 22.333 21.0344 19.7845C21.5549 18.5995 21.7919 17.959 21.7439 17.8615Z" fill="white"/>
<path d="M16.7729 0.262011C16.7219 0.205011 14.8844 0.284511 13.2854 2.02001C11.6864 3.75401 11.9324 5.74301 11.9684 5.79401C12.0044 5.84501 14.2484 5.92451 15.6809 3.90701C17.1134 1.88951 16.8239 0.320511 16.7729 0.262011ZM21.7439 17.8615C21.6719 17.7175 18.2564 16.0105 18.5744 12.7285C18.8924 9.44501 21.0869 8.54501 21.1214 8.44751C21.1559 8.35001 20.2259 7.26251 19.2404 6.71201C18.5168 6.32389 17.716 6.10152 16.8959 6.06101C16.7339 6.05651 16.1714 5.91851 15.0149 6.23501C14.2529 6.44351 12.5354 7.11851 12.0629 7.14551C11.5889 7.17251 10.1789 6.36251 8.66239 6.14801C7.69189 5.96051 6.66289 6.34451 5.92639 6.64001C5.19139 6.93401 3.79339 7.77101 2.81539 9.99551C1.83739 12.2185 2.34889 15.7405 2.71489 16.8355C3.08089 17.929 3.65239 19.7215 4.62439 21.0295C5.48839 22.5055 6.63439 23.53 7.11289 23.878C7.59139 24.226 8.94139 24.457 9.87739 23.9785C10.6304 23.5165 11.9894 23.251 12.5264 23.2705C13.0619 23.29 14.1179 23.5015 15.1994 24.079C16.0559 24.3745 16.8659 24.2515 17.6774 23.9215C18.4889 23.59 19.6634 22.333 21.0344 19.7845C21.5549 18.5995 21.7919 17.959 21.7439 17.8615Z" fill="white"/>
</g>
<defs>
<clipPath id="clip0_1601_7812">
<rect width="24" height="24" fill="white" transform="translate(0 0.25)"/>
</clipPath>
</defs>
</svg>
