<svg width="350" height="224" viewBox="0 0 350 224" fill="none" xmlns="http://www.w3.org/2000/svg">
<g clip-path="url(#clip0_1335_42864)">
<path d="M349.999 0.198242H0.148438V224H349.999V0.198242Z" fill="#35383F"/>
<path d="M101.433 217.997C101.296 217.997 101.159 218.001 101.021 218.01L101.218 217.642C101.287 217.757 101.356 217.877 101.433 217.997Z" fill="#FFB8B8"/>
<path d="M339.995 28.2686H10.1523V210.76H339.995V28.2686Z" fill="#1F222A"/>
<path d="M299.411 125.842H234.898V195.751H299.411V125.842Z" fill="#35383F"/>
<path d="M285.531 195.751L287 188.581L288.366 188.004L288.375 188.008C288.499 188.055 289.985 188.684 289.985 191.067C289.985 191.546 289.913 193.27 289.793 195.751H285.531Z" fill="#575A89"/>
<path d="M207.331 125.842H142.818V195.751H207.331V125.842Z" fill="#35383F"/>
<path d="M162.279 195.751H152.758L152.668 187.996C152.664 187.914 152.664 187.837 152.664 187.756L154.57 185.613L154.604 185.574L161.881 190.177L162.279 195.751Z" fill="#D0CDE1"/>
<path d="M115.249 125.842H50.7363V195.751H115.249V125.842Z" fill="#35383F"/>
<path d="M78.3812 165.22C78.3812 165.22 79.4177 173.848 75.617 174.539C71.8163 175.229 79.0722 186.963 79.0722 186.963L96.3483 189.034L92.2021 175.229C92.2021 175.229 89.4379 174.194 91.1655 167.291C92.8931 160.389 78.3812 165.22 78.3812 165.22Z" fill="#9F616A"/>
<path d="M68.3145 195.752C70.1475 188.552 72.6787 178.854 72.6787 178.854C72.6787 178.854 73.6637 179.055 75.2141 179.282C77.4789 179.618 79.7611 179.826 82.0495 179.902C84.979 179.983 88.0626 179.791 90.4482 178.965C91.3475 178.677 92.1875 178.229 92.9279 177.643C93.2398 177.392 93.519 177.104 93.7588 176.783C97.9046 171.261 99.6306 192.312 99.6306 192.312L99.9518 195.752L68.3145 195.752Z" fill="url(#paint0_linear_1335_42864)"/>
<path d="M105.89 181.138C105.873 181.057 105.86 180.988 105.847 180.924C105.802 180.741 105.723 180.567 105.616 180.411C105.614 180.407 105.612 180.403 105.612 180.398C103.616 177.309 90.7805 173.057 90.7805 173.057L90.3008 174.713C90.3008 174.713 90.3607 176.347 90.4464 178.965C90.5321 181.416 90.6348 184.727 90.7334 188.363C90.8019 190.738 90.8618 193.253 90.9175 195.751H110.117C109.042 190.79 107.629 185.908 105.89 181.138Z" fill="#2F2E41"/>
<path d="M81.6633 179.196C79.2992 176.496 77.8944 172.561 77.8302 172.385V172.381C77.8302 172.381 74.0613 170.225 73.0249 172.296C71.9884 174.366 62.3135 179.542 61.277 179.542C61.2688 179.546 61.2602 179.549 61.2513 179.551C60.8402 179.688 55.6922 181.557 54.3688 188.517C54.0094 190.912 53.8176 193.33 53.7949 195.751H81.9717C82.2629 192.701 82.4814 189.848 82.567 187.384C82.6912 183.949 82.5713 181.279 82.0488 179.902C81.9653 179.645 81.8345 179.405 81.6633 179.196Z" fill="#2F2E41"/>
<path d="M82.1407 142.763C81.6221 142.72 81.1028 142.836 80.6516 143.095C80.2235 143.46 79.8798 143.913 79.6443 144.423C78.5545 146.335 77.0792 147.999 75.3118 149.312C74.0244 150.254 72.3877 151.428 72.608 153.165C72.7242 153.739 72.9363 154.288 73.2355 154.792C74.4231 157.186 77.6639 159.037 77.3451 161.769C78.525 159.796 76.9468 158.82 78.1267 156.847C78.6886 155.908 79.6647 154.847 80.5131 155.437C80.7972 155.635 80.9837 155.989 81.2794 156.163C81.9852 156.576 82.736 155.785 83.3607 155.225C85.5149 153.294 88.5783 153.8 91.259 154.402C92.5245 154.686 93.9146 155.058 94.6627 156.267C95.6463 157.855 93.7282 159.571 93.2435 161.367C93.204 161.52 93.2021 161.68 93.2381 161.834C93.2741 161.988 93.3469 162.131 93.4502 162.25C93.5535 162.37 93.6843 162.463 93.8315 162.521C93.9786 162.579 94.1376 162.601 94.295 162.584C95.0993 162.505 96.0522 162.44 96.0998 162.088C97.1118 162.124 98.3517 162.009 98.7853 160.957C98.9179 160.54 98.9879 160.106 98.9932 159.669C99.1524 157.901 99.9036 156.288 100.401 154.606C100.899 152.923 101.115 150.951 100.276 149.459C99.9758 148.962 99.6051 148.512 99.1751 148.123C94.4089 143.516 88.1424 142.756 82.1407 142.763Z" fill="#2F2E41"/>
<path d="M86.1547 170.915C91.8795 170.915 96.5204 166.279 96.5204 160.561C96.5204 154.843 91.8795 150.208 86.1547 150.208C80.4299 150.208 75.7891 154.843 75.7891 160.561C75.7891 166.279 80.4299 170.915 86.1547 170.915Z" fill="#9F616A"/>
<path d="M270.1 170.708C276.689 170.708 282.03 165.373 282.03 158.792C282.03 152.211 276.689 146.875 270.1 146.875C263.511 146.875 258.17 152.211 258.17 158.792C258.17 165.373 263.511 170.708 270.1 170.708Z" fill="#FFB8B8"/>
<path d="M277.556 165.743L276.562 186.1L261.152 177.163L263.14 165.743H277.556Z" fill="#FFB8B8"/>
<path d="M282.031 187.093L281.02 195.751H272.93L264.15 178.901L261.675 174.156L260.488 173.382L261.863 173.07L262.947 173.853L275.071 182.627L277.016 176.796L277.067 176.646L277.555 175.179L282.031 187.093Z" fill="url(#paint1_linear_1335_42864)"/>
<path d="M288.375 188.008L288.367 188.004L282.032 182.126V178.156L277.141 174.306L277.068 176.646L276.563 192.556L268.43 181.382L262.948 173.853L261.963 172.505L262.203 171.243L259.166 174.678L248.176 182.913L247.234 183.619C246.153 184.699 245.157 185.861 244.253 187.093C243.958 187.533 242.613 191.041 240.861 195.751H289.793C289.913 193.27 289.985 191.546 289.985 191.067C289.985 188.684 288.499 188.055 288.375 188.008Z" fill="#2F2E41"/>
<path d="M174.093 145.703C166.009 145.703 159.455 152.967 159.455 161.929V173.314H162.961L164.99 169.096L164.483 173.314H187.016L188.861 169.479L188.4 173.314H190.937V164.375C190.937 154.062 183.396 145.703 174.093 145.703Z" fill="#2F2E41"/>
<path d="M172.798 171.723C178.553 171.723 183.218 167.063 183.218 161.314C183.218 155.566 178.553 150.906 172.798 150.906C167.042 150.906 162.377 155.566 162.377 161.314C162.377 167.063 167.042 171.723 172.798 171.723Z" fill="#FBBEBE"/>
<path d="M166.822 167.56C166.822 167.56 169.879 183.381 168.49 185.046C167.1 186.711 183.217 181.993 183.217 181.993C183.217 181.993 177.938 171.168 180.716 165.062L166.822 167.56Z" fill="#FBBEBE"/>
<path d="M195.094 178.259H195.09C194.844 177.741 194.42 177.328 193.895 177.095C191.852 176.236 190.092 175.577 188.644 175.076C186.084 174.198 183.29 174.285 180.79 175.32C180.545 175.419 180.306 175.525 180.07 175.645C180.07 175.645 169.881 177.583 168.669 177.339C168.579 177.322 168.485 177.309 168.395 177.301C168.212 177.275 168.027 177.259 167.843 177.254C165.472 177.144 163.12 177.727 161.076 178.931C157.731 180.869 152.771 184.304 152.668 187.649L152.574 187.756L152.668 195.751H197.39C197.48 188.09 197.531 182.332 197.531 181.942C197.531 180.732 195.094 178.259 195.094 178.259Z" fill="url(#paint2_linear_1335_42864)"/>
<path d="M178.254 150.172C177.55 149.228 176.637 148.458 175.587 147.922C174.536 147.387 173.376 147.1 172.197 147.085H171.91C166.369 147.085 161.877 152.093 161.877 158.271V158.271H163.734L164.033 155.991L164.473 158.271H175.485L176.407 156.342L176.176 158.271H178.343C179.354 163.285 177.901 168.3 173.985 173.314H177.676L179.521 169.457L179.059 173.314H186.094L187.478 164.443C187.478 157.798 183.613 152.164 178.254 150.172Z" fill="#2F2E41"/>
<path d="M82.6456 145.472C82.2278 145.441 81.8093 145.522 81.4333 145.707C81.0934 145.955 80.8133 146.275 80.6134 146.645C79.6918 148.03 78.4904 149.207 77.0865 150.1C76.0385 150.766 74.7062 151.596 74.8855 152.824C74.9828 153.235 75.156 153.625 75.3963 153.973C76.3664 155.683 76.7526 157.662 76.4964 159.61L79.378 155.427C79.8354 154.762 80.63 154.013 81.3206 154.43C81.5519 154.57 81.7037 154.82 81.9444 154.943C82.5189 155.235 83.1301 154.676 83.6387 154.28C85.3923 152.915 87.8861 153.272 90.0682 153.698C91.0984 153.899 92.23 154.162 92.839 155.016C93.851 156.435 92.7943 158.485 93.3849 160.125C93.5502 160.009 93.6907 159.862 93.7978 159.691C93.905 159.52 93.9767 159.329 94.0088 159.13C94.8326 159.156 95.842 159.075 96.195 158.331C96.3023 158.039 96.3595 157.732 96.3642 157.421C96.4937 156.172 97.1053 155.031 97.5104 153.842C97.9156 152.653 98.0917 151.259 97.408 150.204C97.1579 149.847 96.856 149.529 96.5123 149.26C92.6324 146.004 87.5312 145.467 82.6456 145.472Z" fill="#2F2E41"/>
<path d="M262.894 147.124C262.894 147.124 264.385 139.676 272.835 141.166L271.841 141.662C271.841 141.662 279.795 140.669 278.8 145.138C278.8 145.138 285.263 149.11 283.771 153.579C282.894 156.169 282.23 158.825 281.783 161.523L280.292 160.033C280.292 160.033 278.8 150.103 269.853 151.096C263.142 151.841 260.408 155.006 259.709 157.287C259.387 158.359 258.977 159.403 258.481 160.408L257.923 160.53C257.923 160.53 254.94 149.606 262.894 147.124Z" fill="#2F2E41"/>
<path d="M180.275 151.106C183.303 151.106 185.758 148.654 185.758 145.63C185.758 142.606 183.303 140.154 180.275 140.154C177.248 140.154 174.793 142.606 174.793 145.63C174.793 148.654 177.248 151.106 180.275 151.106Z" fill="#2F2E41"/>
<path d="M299.411 43.2783H234.898V113.188H299.411V43.2783Z" fill="#35383F"/>
<path d="M289.299 113.188H281.076L280.939 111.78L280.814 110.48L284.6 110.005L289.166 109.436L289.217 110.895L289.299 113.188Z" fill="#FBBEBE"/>
<path d="M207.331 43.2783H142.818V113.188H207.331V43.2783Z" fill="#35383F"/>
<path d="M115.249 43.2783H50.7363V113.188H115.249V43.2783Z" fill="#35383F"/>
<path d="M75.7957 85.5502C81.8184 85.5502 86.7008 80.6735 86.7008 74.6577C86.7008 68.6419 81.8184 63.7651 75.7957 63.7651C69.773 63.7651 64.8906 68.6419 64.8906 74.6577C64.8906 80.6735 69.773 85.5502 75.7957 85.5502Z" fill="#FFB9B9"/>
<path d="M71.5352 82.9977C71.5352 82.9977 72.8983 89.4651 72.8983 90.1459C72.8983 90.8267 79.3732 93.8902 79.3732 93.8902L85.1665 92.869L87.2112 86.742C87.2112 86.742 83.8034 81.6361 83.8034 79.5938L71.5352 82.9977Z" fill="#FFB9B9"/>
<path d="M110.384 110.57L107.66 98.3137C106.294 94.2283 102.889 90.8273 102.889 90.8273L86.0833 84.9238H86.079C86.0462 86.4077 85.5455 87.8433 84.648 89.0263C83.7506 90.2092 82.5022 91.079 81.0809 91.5118C75.9672 93.2101 72.4467 87.4863 72.4467 87.4863L58.2405 98.3137C58.2405 98.3137 53.8121 102.061 54.1547 109.21L53.6836 113.188H111.695L110.384 110.57Z" fill="url(#paint3_linear_1335_42864)"/>
<path d="M66.3382 65.8823C66.3382 65.8823 69.8005 58.3893 76.4366 60.1184C83.0728 61.8476 86.8236 64.4414 87.1121 67.0351C87.4007 69.6288 86.9679 73.5195 86.9679 73.5195C86.9679 73.5195 86.2466 68.1879 81.6301 69.3407C77.0137 70.4934 69.8005 69.6289 69.8005 69.6289L68.6464 80.0039C68.6464 80.0039 67.348 78.1306 65.9054 79.2834C64.4627 80.4362 61.7217 68.1879 66.3382 65.8823Z" fill="#2F2E41"/>
<path d="M167.63 90.9785C175.804 90.9785 182.431 83.9519 182.431 75.2842C182.431 66.6164 175.804 59.5898 167.63 59.5898C159.455 59.5898 152.828 66.6164 152.828 75.2842C152.828 83.9519 159.455 90.9785 167.63 90.9785Z" fill="#2F2E41"/>
<path d="M180.763 99.034C185.064 99.034 188.55 95.5518 188.55 91.2562C188.55 86.9607 185.064 83.4785 180.763 83.4785C176.463 83.4785 172.977 86.9607 172.977 91.2562C172.977 95.5518 176.463 99.034 180.763 99.034Z" fill="#2F2E41"/>
<path d="M175.339 80.8398L179.511 91.6728L168.943 96.1175L168.015 94.0166L164.771 86.6732L175.339 80.8398Z" fill="#9F616A"/>
<path d="M197.03 99.7254L196.773 99.7553C196.767 99.746 196.759 99.7374 196.751 99.7296C195.732 98.7115 190.867 96.8591 187.239 95.5758H187.235C184.931 94.7587 183.128 94.1726 183.128 94.1726L178.742 89.668C177.637 90.9086 175.303 91.8668 173.084 92.5427C171.386 93.0562 169.658 93.4676 167.911 93.7748H167.906L166.999 96.6709C166.999 96.6709 156.707 104.452 155.876 105.282H155.872V105.291C155.805 105.385 155.778 105.502 155.795 105.616V105.637C155.276 108.121 155.009 110.651 154.998 113.188H199.814V110.561C199.814 106.951 197.03 99.7254 197.03 99.7254Z" fill="#575A89"/>
<path d="M166.998 87.923C172.143 87.923 176.314 83.7568 176.314 78.6175C176.314 73.4782 172.143 69.312 166.998 69.312C161.853 69.312 157.682 73.4782 157.682 78.6175C157.682 83.7568 161.853 87.923 166.998 87.923Z" fill="#9F616A"/>
<path d="M159.382 77.597C165.237 73.6942 166.988 72.7612 173.7 74.2687L174.102 64.4883L156.758 68.1225L159.382 77.597Z" fill="#2F2E41"/>
<path d="M279.441 113.188H257.282L256.061 101.163L255.988 100.431L255.838 98.9811L255.226 92.9193L254.459 99.4302L252.84 113.188H248.814L248.964 108.906L249.114 104.564L249.178 102.814L250.005 79.0118C249.942 75.2399 251.137 71.5541 253.401 68.5352C254.659 66.9001 256.281 65.581 258.139 64.683C259.998 63.7851 262.04 63.3331 264.104 63.3632C266.21 63.3564 268.289 63.8368 270.178 64.7667C272.066 65.6967 273.714 67.051 274.991 68.7234C277.332 71.7726 278.585 75.5161 278.55 79.3583L278.931 93.7663L279.441 113.188Z" fill="#2F2E41"/>
<path d="M264.104 87.5294C269.487 87.5294 273.851 83.1706 273.851 77.7938C273.851 72.4169 269.487 68.0581 264.104 68.0581C258.721 68.0581 254.357 72.4169 254.357 77.7938C254.357 83.1706 258.721 87.5294 264.104 87.5294Z" fill="#FBBEBE"/>
<path d="M259.231 84.7477C259.231 84.7477 262.016 94.1356 259.231 96.9172C256.446 99.6988 255.75 100.742 255.75 100.742L263.756 111.521L277.681 94.4833C277.681 94.4833 267.934 91.7017 270.37 84.0522L259.231 84.7477Z" fill="#FBBEBE"/>
<path d="M289.863 110.825C289.863 110.825 288.47 102.133 287.426 98.6555C286.382 95.1785 285.337 95.1785 285.337 95.1785H285.337L285.337 95.1777C284.108 93.9499 281.153 93.7317 278.93 93.766C277.371 93.7831 276.172 93.92 276.172 93.92L263.756 107.002L257.503 98.6984V98.6941C256.94 98.7378 256.382 98.8338 255.837 98.9807C255.368 99.1001 254.907 99.2501 254.458 99.4299C252.522 100.256 250.737 101.4 249.177 102.814H249.173C248.274 103.622 247.743 104.217 247.743 104.217C246.365 107.077 245.328 110.087 244.65 113.188H284.438L284.528 111.399V111.396L289.863 110.825Z" fill="url(#paint4_linear_1335_42864)"/>
<path d="M255.923 76.2287C262.218 72.8387 264.804 72.9822 272.632 76.2287L274.721 71.1459C274.72 70.1889 274.338 69.2713 273.661 68.5946C272.983 67.9179 272.065 67.5372 271.107 67.5361H257.1C256.142 67.5372 255.224 67.9179 254.546 68.5946C253.868 69.2713 253.487 70.1889 253.486 71.1459L255.923 76.2287Z" fill="#2F2E41"/>
<path d="M349.851 0H0V14.8458H349.851V0Z" fill="url(#paint5_linear_1335_42864)"/>
<path d="M31.9579 10.3415C33.4793 10.3415 34.7126 9.10958 34.7126 7.58994C34.7126 6.07029 33.4793 4.83838 31.9579 4.83838C30.4365 4.83838 29.2031 6.07029 29.2031 7.58994C29.2031 9.10958 30.4365 10.3415 31.9579 10.3415Z" fill="#1F222A"/>
<path d="M21.5008 10.3415C23.0222 10.3415 24.2556 9.10958 24.2556 7.58994C24.2556 6.07029 23.0222 4.83838 21.5008 4.83838C19.9794 4.83838 18.7461 6.07029 18.7461 7.58994C18.7461 9.10958 19.9794 10.3415 21.5008 10.3415Z" fill="#1F222A"/>
<path d="M11.0457 10.3415C12.5671 10.3415 13.8005 9.10958 13.8005 7.58994C13.8005 6.07029 12.5671 4.83838 11.0457 4.83838C9.52435 4.83838 8.29102 6.07029 8.29102 7.58994C8.29102 9.10958 9.52435 10.3415 11.0457 10.3415Z" fill="#1F222A"/>
</g>
<defs>
<linearGradient id="paint0_linear_1335_42864" x1="99.9518" y1="195.752" x2="66.2981" y2="180.232" gradientUnits="userSpaceOnUse">
<stop stop-color="#246BFD"/>
<stop offset="1" stop-color="#5089FF"/>
</linearGradient>
<linearGradient id="paint1_linear_1335_42864" x1="282.031" y1="195.751" x2="256.201" y2="188.638" gradientUnits="userSpaceOnUse">
<stop stop-color="#246BFD"/>
<stop offset="1" stop-color="#5089FF"/>
</linearGradient>
<linearGradient id="paint2_linear_1335_42864" x1="197.531" y1="195.751" x2="155.366" y2="169.919" gradientUnits="userSpaceOnUse">
<stop stop-color="#246BFD"/>
<stop offset="1" stop-color="#5089FF"/>
</linearGradient>
<linearGradient id="paint3_linear_1335_42864" x1="111.695" y1="113.188" x2="56.4337" y2="80.3026" gradientUnits="userSpaceOnUse">
<stop stop-color="#246BFD"/>
<stop offset="1" stop-color="#5089FF"/>
</linearGradient>
<linearGradient id="paint4_linear_1335_42864" x1="289.863" y1="113.188" x2="249.791" y2="86.1452" gradientUnits="userSpaceOnUse">
<stop stop-color="#246BFD"/>
<stop offset="1" stop-color="#5089FF"/>
</linearGradient>
<linearGradient id="paint5_linear_1335_42864" x1="349.851" y1="14.8458" x2="340.387" y2="-49.8178" gradientUnits="userSpaceOnUse">
<stop stop-color="#246BFD"/>
<stop offset="1" stop-color="#5089FF"/>
</linearGradient>
<clipPath id="clip0_1335_42864">
<rect width="350" height="224" fill="white"/>
</clipPath>
</defs>
</svg>
