<svg width="350" height="258" viewBox="0 0 350 258" fill="none" xmlns="http://www.w3.org/2000/svg">
<g clip-path="url(#clip0_1335_42800)">
<path d="M109.455 258C118.591 258 125.997 250.58 125.997 241.427C125.997 232.274 118.591 224.854 109.455 224.854C100.318 224.854 92.9121 232.274 92.9121 241.427C92.9121 250.58 100.318 258 109.455 258Z" fill="#35383F"/>
<path d="M109.456 254.133C116.46 254.133 122.139 248.444 122.139 241.427C122.139 234.41 116.46 228.721 109.456 228.721C102.452 228.721 96.7734 234.41 96.7734 241.427C96.7734 248.444 102.452 254.133 109.456 254.133Z" fill="#1F222A"/>
<path d="M115.809 248.367C115.733 248.367 115.658 248.352 115.588 248.323C115.518 248.294 115.454 248.251 115.401 248.197L102.692 235.465C102.588 235.355 102.531 235.21 102.533 235.059C102.535 234.908 102.596 234.764 102.702 234.657C102.809 234.551 102.953 234.49 103.103 234.488C103.254 234.486 103.399 234.543 103.509 234.647L116.217 247.379C116.298 247.46 116.353 247.563 116.375 247.675C116.397 247.787 116.386 247.904 116.342 248.009C116.299 248.115 116.225 248.205 116.13 248.269C116.035 248.333 115.923 248.367 115.809 248.367H115.809Z" fill="url(#paint0_linear_1335_42800)"/>
<path d="M116.627 242.652C116.747 242.464 116.81 242.245 116.809 242.022C116.809 241.799 116.744 241.581 116.624 241.394C115.697 239.943 114.476 238.704 113.04 237.758C111.584 236.788 109.88 236.26 108.131 236.236C107.25 236.238 106.374 236.382 105.538 236.663C105.515 236.671 105.494 236.684 105.477 236.702C105.461 236.721 105.449 236.743 105.443 236.767C105.438 236.791 105.438 236.816 105.445 236.84C105.452 236.864 105.464 236.885 105.482 236.903L107.188 238.611C107.205 238.629 107.228 238.642 107.252 238.648C107.276 238.655 107.302 238.655 107.326 238.649C108.219 238.431 109.162 238.578 109.947 239.056C110.733 239.535 111.296 240.306 111.514 241.201L111.518 241.218C111.812 242.601 112.485 243.875 113.461 244.898L114.005 245.442C114.03 245.468 114.065 245.483 114.101 245.485C114.137 245.486 114.172 245.474 114.2 245.451C115.144 244.644 115.962 243.701 116.627 242.652Z" fill="url(#paint1_linear_1335_42800)"/>
<path d="M110.712 244.109C110.257 244.109 109.806 244.02 109.386 243.845C108.965 243.671 108.583 243.415 108.261 243.093C107.939 242.77 107.684 242.387 107.51 241.966C107.335 241.545 107.246 241.093 107.246 240.637C107.246 240.634 107.246 240.631 107.246 240.628C107.253 240.325 107.201 240.023 107.091 239.74C106.981 239.457 106.817 239.199 106.607 238.98L104.892 237.262C104.866 237.236 104.832 237.221 104.796 237.22C104.759 237.218 104.724 237.231 104.696 237.255C103.769 238.06 102.948 238.98 102.254 239.993C102.123 240.18 102.051 240.403 102.047 240.632C102.043 240.861 102.107 241.086 102.231 241.278C103.142 242.73 104.352 243.971 105.779 244.919C107.237 245.892 108.948 246.416 110.7 246.424C111.591 246.422 112.476 246.281 113.323 246.007C113.347 245.999 113.368 245.986 113.385 245.967C113.402 245.949 113.414 245.927 113.419 245.903C113.425 245.879 113.425 245.854 113.418 245.83C113.411 245.806 113.399 245.784 113.381 245.766L111.667 244.05C111.649 244.032 111.627 244.019 111.603 244.013C111.579 244.006 111.554 244.006 111.529 244.012C111.262 244.077 110.987 244.11 110.712 244.109Z" fill="url(#paint2_linear_1335_42800)"/>
<path d="M46.6909 258C55.8271 258 63.2334 250.58 63.2334 241.427C63.2334 232.274 55.8271 224.854 46.6909 224.854C37.5548 224.854 30.1484 232.274 30.1484 241.427C30.1484 250.58 37.5548 258 46.6909 258Z" fill="#35383F"/>
<path d="M46.6904 254.133C53.6948 254.133 59.373 248.444 59.373 241.427C59.373 234.41 53.6948 228.721 46.6904 228.721C39.686 228.721 34.0078 234.41 34.0078 241.427C34.0078 248.444 39.686 254.133 46.6904 254.133Z" fill="#1F222A"/>
<path d="M51.5633 249.529C50.8586 249.529 49.8686 249.274 48.3862 248.444C46.5437 247.457 44.8612 246.197 43.3962 244.704C41.8799 243.258 40.6136 241.569 39.6489 239.707C38.3189 237.283 38.5456 236.013 38.799 235.47C39.0917 234.876 39.5517 234.382 40.1223 234.048C40.4494 233.833 40.7955 233.649 41.1563 233.498C41.1924 233.483 41.226 233.468 41.256 233.454C41.3754 233.387 41.5078 233.345 41.6444 233.333C41.7811 233.32 41.9188 233.337 42.0485 233.382C42.3366 233.521 42.593 233.718 42.8016 233.961C43.5525 234.805 44.186 235.747 44.6848 236.761C44.8898 237.112 45.0159 237.504 45.0541 237.908C45.0242 238.309 44.8623 238.688 44.5938 238.987C44.5465 239.051 44.4996 239.113 44.4541 239.173C44.1793 239.535 44.119 239.639 44.1588 239.826C44.2393 240.201 45.4594 240.527 46.4461 241.514C47.4328 242.5 47.8956 243.854 48.2714 243.934C48.4656 243.976 48.5721 243.913 48.9447 243.628C48.9982 243.587 49.053 243.545 49.1105 243.503C49.4091 243.221 49.7941 243.048 50.203 243.013H50.2051C50.615 243.055 51.0091 243.194 51.3554 243.417C52.3564 243.926 53.2916 244.555 54.1405 245.29C54.3833 245.498 54.5806 245.755 54.7199 246.043C54.7646 246.173 54.7813 246.311 54.7689 246.448C54.7564 246.586 54.7151 246.719 54.6477 246.839C54.6344 246.869 54.6196 246.901 54.604 246.938C54.4521 247.299 54.2673 247.645 54.052 247.972C53.7175 248.543 53.2232 249.003 52.6302 249.295C52.2969 249.453 51.9321 249.533 51.5633 249.529Z" fill="url(#paint3_linear_1335_42800)"/>
<path d="M172.707 258C181.843 258 189.249 250.58 189.249 241.427C189.249 232.274 181.843 224.854 172.707 224.854C163.57 224.854 156.164 232.274 156.164 241.427C156.164 250.58 163.57 258 172.707 258Z" fill="#35383F"/>
<path d="M172.706 254.133C179.71 254.133 185.389 248.444 185.389 241.427C185.389 234.41 179.71 228.721 172.706 228.721C165.702 228.721 160.023 234.41 160.023 241.427C160.023 248.444 165.702 254.133 172.706 254.133Z" fill="#1F222A"/>
<path d="M177.328 239.054C177.175 239.054 177.028 239.115 176.92 239.224C176.811 239.332 176.751 239.479 176.751 239.633V240.79C176.751 243.028 174.94 243.684 172.707 243.684C170.474 243.684 168.663 243.028 168.663 240.79V239.633C168.663 239.479 168.602 239.332 168.494 239.224C168.386 239.115 168.239 239.054 168.085 239.054C167.932 239.054 167.785 239.115 167.677 239.224C167.569 239.332 167.508 239.479 167.508 239.633V240.79C167.51 242.071 167.981 243.306 168.834 244.26C169.686 245.214 170.859 245.821 172.129 245.964V248.314C172.129 248.467 172.19 248.615 172.298 248.723C172.407 248.832 172.554 248.893 172.707 248.893H172.707C172.86 248.893 173.007 248.832 173.115 248.723C173.224 248.615 173.285 248.467 173.285 248.314V245.964C174.555 245.821 175.728 245.214 176.58 244.26C177.432 243.306 177.904 242.071 177.906 240.79V239.633C177.906 239.479 177.845 239.332 177.737 239.224C177.628 239.115 177.481 239.054 177.328 239.054Z" fill="url(#paint4_linear_1335_42800)"/>
<path d="M172.707 242.047C171.998 242.06 171.297 241.9 170.665 241.579C170.438 241.488 170.239 241.338 170.09 241.144C169.941 240.949 169.847 240.718 169.818 240.475V238.321C169.812 237.467 171.095 236.772 172.684 236.769C172.692 236.769 172.699 236.769 172.707 236.769C174.285 236.759 175.578 237.44 175.595 238.288C175.595 238.299 175.595 238.31 175.595 238.321V240.475C175.603 241.337 174.311 242.04 172.707 242.047Z" fill="url(#paint5_linear_1335_42800)"/>
<path d="M328.426 214.753H259.815C257.551 214.75 255.38 213.848 253.779 212.244C252.178 210.64 251.278 208.466 251.275 206.198V159.119C251.278 156.851 252.178 154.676 253.779 153.072C255.38 151.468 257.551 150.566 259.815 150.563H328.426C330.69 150.566 332.861 151.468 334.462 153.072C336.063 154.676 336.963 156.851 336.966 159.119V206.198C336.963 208.466 336.063 210.64 334.462 212.244C332.861 213.848 330.69 214.75 328.426 214.753ZM259.815 155.066C258.743 155.067 257.714 155.495 256.956 156.255C256.198 157.014 255.771 158.044 255.77 159.119V206.198C255.771 207.272 256.198 208.302 256.956 209.062C257.714 209.822 258.743 210.249 259.815 210.25H328.426C329.499 210.249 330.527 209.822 331.285 209.062C332.044 208.302 332.47 207.272 332.471 206.198V159.119C332.47 158.044 332.044 157.014 331.285 156.255C330.527 155.495 329.499 155.067 328.426 155.066H259.815Z" fill="#35383F"/>
<path d="M328.427 212.726H259.816C258.088 212.724 256.432 212.036 255.21 210.812C253.988 209.588 253.301 207.928 253.299 206.198V159.118C253.301 157.387 253.988 155.728 255.21 154.504C256.432 153.28 258.088 152.591 259.816 152.589H328.427C330.155 152.591 331.811 153.28 333.033 154.504C334.255 155.728 334.942 157.387 334.944 159.118V206.198C334.942 207.928 334.255 209.588 333.033 210.812C331.811 212.036 330.155 212.724 328.427 212.726Z" fill="#1F222A"/>
<path d="M315.929 206.69C317.035 205.982 318.206 205.383 319.427 204.901L307.389 190.581L299.433 188.542C299.367 188.505 299.303 188.467 299.239 188.429L285.818 188.944L285.76 188.887L277.298 193.034L265.26 206.977C266.448 207.444 267.589 208.022 268.669 208.703L267.426 213.437H276.04L278.332 210.1H278.447C278.447 210.042 278.452 209.985 278.452 209.927L280.06 207.584C280.096 209.477 280.044 211.428 279.914 213.437H306.705C306.663 211.768 306.653 210.11 306.653 208.463L309.649 212.819C309.874 212.49 310.114 212.181 310.354 211.868L310.944 213.437H317.803L316.159 207.171C316.112 206.998 316.035 206.835 315.929 206.69Z" fill="#35383F"/>
<path d="M300.554 167.915C300.951 165.436 299.829 163.61 296.853 162.58C293.893 160.007 289.518 159.39 286.893 163.511C285.832 163.448 284.789 163.797 283.98 164.486C283.171 165.175 282.658 166.15 282.549 167.209C280.137 170.017 282.815 180.325 283.609 184.253L287.843 184.211L296.295 184.128L300.554 184.086L302.178 174.876C303.165 172.198 302.763 169.85 300.554 167.915Z" fill="#35383F"/>
<path d="M216.627 207.43H11.022C8.75792 207.427 6.58735 206.525 4.98643 204.921C3.38551 203.317 2.48499 201.143 2.48242 198.874V51.0943C2.48499 48.8261 3.38551 46.6515 4.98643 45.0477C6.58735 43.4438 8.75792 42.5416 11.022 42.5391H216.627C218.891 42.5416 221.061 43.4438 222.662 45.0477C224.263 46.6515 225.164 48.8261 225.166 51.0943V198.874C225.164 201.143 224.263 203.317 222.662 204.921C221.061 206.525 218.891 207.427 216.627 207.43ZM11.022 47.0418C9.94952 47.0431 8.92138 47.4704 8.16305 48.2301C7.40473 48.9899 6.97816 50.0199 6.97692 51.0943V198.874C6.97813 199.949 7.40469 200.979 8.16302 201.739C8.92135 202.498 9.94951 202.926 11.022 202.927H216.627C217.699 202.926 218.727 202.498 219.486 201.739C220.244 200.979 220.671 199.949 220.672 198.874V51.0943C220.67 50.0199 220.244 48.9899 219.486 48.2301C218.727 47.4704 217.699 47.0431 216.627 47.0418H11.022Z" fill="#35383F"/>
<path d="M216.628 205.404H11.0229C9.29505 205.402 7.63858 204.713 6.41684 203.489C5.19509 202.265 4.50785 200.606 4.50586 198.875V51.0944C4.50785 49.3634 5.19509 47.7039 6.41684 46.4799C7.63858 45.2559 9.29505 44.5674 11.0229 44.5654H216.628C218.355 44.5674 220.012 45.2559 221.234 46.4799C222.455 47.7039 223.143 49.3634 223.145 51.0944V198.875C223.143 200.606 222.455 202.265 221.234 203.489C220.012 204.713 218.355 205.402 216.628 205.404Z" fill="#1F222A"/>
<path d="M53.6367 205.178H174.013C173.208 195.979 172.682 189.135 172.682 186.82C172.682 176.613 164.345 165.473 164.345 165.473L161.361 163.82L136.439 156.031L129.989 147.638C129.314 146.756 128.443 146.044 127.447 145.556C126.45 145.069 125.354 144.819 124.245 144.828L103.872 144.981C102.079 144.995 100.356 145.679 99.04 146.899L86.424 158.624L67.9202 167.477L67.8887 167.445L67.6954 167.589L64.9493 169.57L63.183 170.849C63.183 170.849 58.5492 176.419 54.8457 193.124C54.2884 195.637 53.8974 199.842 53.6367 205.178Z" fill="url(#paint6_linear_1335_42800)"/>
<path d="M112.819 136.149C124.839 136.149 134.582 126.388 134.582 114.347C134.582 102.305 124.839 92.5439 112.819 92.5439C100.8 92.5439 91.0566 102.305 91.0566 114.347C91.0566 126.388 100.8 136.149 112.819 136.149Z" fill="#FFB8B8"/>
<path d="M88.542 93.3726C88.7065 90.8689 90.3593 88.3068 95.6102 86.968C95.6102 86.968 104.622 75.4234 116.867 81.4775C116.867 81.4775 122.804 80.4543 127.206 86.6251C127.206 86.6251 131.571 84.0463 133.412 88.6173C133.412 88.6173 138.531 97.941 136.646 107.451C134.762 116.961 133.797 118.148 133.797 118.148C133.797 118.148 136.199 98.4766 122.364 99.8406C108.528 101.205 97.3896 96.3303 94.2564 107.003C91.6548 115.865 91.9825 120.467 91.9825 120.467C91.9825 120.467 83.2824 111.627 86.2404 104.665C87.7534 101.105 88.2883 97.2339 88.542 93.3726Z" fill="#2F2E41"/>
<path d="M328.426 106.255H259.815C257.551 106.252 255.38 105.35 253.779 103.746C252.178 102.142 251.278 99.9678 251.275 97.6996V50.6206C251.278 48.3524 252.178 46.1779 253.779 44.574C255.38 42.9702 257.551 42.068 259.815 42.0654H328.426C330.69 42.068 332.861 42.9702 334.462 44.574C336.063 46.1779 336.963 48.3524 336.966 50.6206V97.6996C336.963 99.9678 336.063 102.142 334.462 103.746C332.861 105.35 330.69 106.252 328.426 106.255ZM259.815 46.5682C258.743 46.5694 257.714 46.9968 256.956 47.7565C256.198 48.5162 255.771 49.5462 255.77 50.6206V97.6996C255.771 98.774 256.198 99.804 256.956 100.564C257.714 101.323 258.742 101.751 259.815 101.752H328.426C329.499 101.751 330.527 101.323 331.285 100.564C332.044 99.804 332.47 98.774 332.471 97.6996V50.6206C332.47 49.5462 332.044 48.5162 331.285 47.7565C330.527 46.9968 329.499 46.5694 328.426 46.5682H259.815Z" fill="#35383F"/>
<path d="M328.427 104.229H259.816C258.088 104.227 256.432 103.538 255.21 102.314C253.988 101.09 253.301 99.4307 253.299 97.6997V50.6208C253.301 48.8898 253.988 47.2303 255.21 46.0063C256.432 44.7823 258.088 44.0938 259.816 44.0918H328.427C330.155 44.0938 331.811 44.7823 333.033 46.0063C334.255 47.2303 334.942 48.8898 334.944 50.6208V97.6997C334.942 99.4307 334.255 101.09 333.033 102.314C331.811 103.538 330.155 104.227 328.427 104.229Z" fill="#1F222A"/>
<path d="M318.504 100.046C316.967 93.1132 315.044 90.8014 315.044 90.8014L314.31 90.2707L313.171 89.4484L313.09 89.3886L313.077 89.4017L305.398 85.7276L300.161 80.8613C299.615 80.3548 298.9 80.0709 298.156 80.0651L289.7 80.0016C289.24 79.998 288.785 80.1015 288.372 80.3038C287.958 80.5062 287.597 80.8019 287.316 81.1677L284.64 84.6512L274.296 87.8842L273.057 88.5701C273.057 88.5701 269.597 93.1935 269.597 97.4301C269.597 98.3907 269.379 101.231 269.045 105.049H319.006C318.961 103.372 318.794 101.699 318.504 100.046Z" fill="#35383F"/>
<path d="M285.599 169.833H195.897C192.937 169.83 190.099 168.65 188.006 166.554C185.913 164.457 184.736 161.614 184.732 158.648V97.0972C184.736 94.1318 185.913 91.2888 188.006 89.1919C190.099 87.095 192.937 85.9155 195.897 85.9121H285.599C288.559 85.9155 291.397 87.095 293.49 89.1919C295.583 91.2888 296.761 94.1318 296.764 97.0972V158.648C296.761 161.614 295.583 164.457 293.49 166.554C291.397 168.65 288.559 169.83 285.599 169.833ZM195.897 91.799C194.495 91.8006 193.151 92.3594 192.159 93.3526C191.168 94.3459 190.61 95.6925 190.608 97.0972V158.648C190.61 160.053 191.168 161.4 192.159 162.393C193.151 163.386 194.495 163.945 195.897 163.946H285.599C287.001 163.945 288.346 163.386 289.337 162.393C290.329 161.4 290.886 160.053 290.888 158.648V97.0972C290.886 95.6925 290.329 94.3459 289.337 93.3526C288.346 92.3594 287.002 91.8006 285.599 91.799H195.897Z" fill="#35383F"/>
<path d="M285.599 88.5605H195.898C193.638 88.5636 191.472 89.4641 189.875 91.0647C188.277 92.6653 187.378 94.8353 187.375 97.0989V158.65C187.378 160.913 188.277 163.083 189.875 164.682C191.473 166.282 193.639 167.182 195.898 167.184H285.599C287.858 167.182 290.024 166.282 291.621 164.682C293.219 163.083 294.118 160.913 294.121 158.65V97.0989C294.118 94.8353 293.22 92.6653 291.622 91.0647C290.024 89.4641 287.858 88.5636 285.599 88.5605Z" fill="#1F222A"/>
<path d="M256.528 114.292C260.397 114.292 263.533 111.15 263.533 107.274C263.533 103.398 260.397 100.256 256.528 100.256C252.66 100.256 249.523 103.398 249.523 107.274C249.523 111.15 252.66 114.292 256.528 114.292Z" fill="#2F2E41"/>
<path d="M242.139 138.139C251.939 138.139 259.884 130.179 259.884 120.361C259.884 110.542 251.939 102.582 242.139 102.582C232.338 102.582 224.393 110.542 224.393 120.361C224.393 130.179 232.338 138.139 242.139 138.139Z" fill="#2F2E41"/>
<path d="M239.053 139.22C247.018 139.22 253.474 132.752 253.474 124.773C253.474 116.794 247.018 110.326 239.053 110.326C231.089 110.326 224.633 116.794 224.633 124.773C224.633 132.752 231.089 139.22 239.053 139.22Z" fill="#9E616A"/>
<path d="M233.617 106.782C236.419 105.826 239.425 105.641 242.322 106.247C245.219 106.853 247.9 108.228 250.085 110.227C252.271 112.227 253.879 114.778 254.744 117.614C255.608 120.449 255.696 123.466 254.998 126.347C247.425 126.551 239.583 126.251 232.546 121.792L231.724 116.96L229.674 121.155C227.132 121.589 224.618 121.875 222.676 119.584C223.222 116.678 224.519 113.966 226.44 111.719C228.36 109.472 230.835 107.77 233.617 106.782Z" fill="#2F2E41"/>
<path d="M267.027 90.0982C272.237 88.9809 277.943 91.3232 281.124 95.607C284.304 99.8907 284.944 105.851 283.038 110.837C281.094 115.923 276.896 119.74 272.971 123.508C269.047 127.276 265.095 131.483 263.917 136.8C263.069 140.629 263.771 144.64 265.869 147.951C267.968 151.263 271.292 153.606 275.112 154.466C270.196 155.4 265.076 156.328 260.249 155.011C255.422 153.693 251.007 149.411 251.284 144.406C251.483 140.8 253.94 137.789 256.078 134.88C259.56 130.141 262.458 124.998 264.71 119.563C265.784 116.969 266.724 114.2 266.422 111.408C266.15 109.328 265.218 107.39 263.764 105.881C262.309 104.373 260.409 103.372 258.344 103.027L257.055 101.215C257.485 95.8933 261.816 91.2155 267.027 90.0982Z" fill="#2F2E41"/>
<path d="M272.14 166.786C271.206 157.251 265.929 157.625 265.929 157.625L251.994 154.898L245.89 144.745L230.568 144.146L225.113 153.728L213.905 155.132L213.896 155.291C212.784 155.375 208.777 156.255 207.974 164.447C207.9 165.2 207.797 166.122 207.666 167.184H272.182C272.168 167.043 272.154 166.912 272.14 166.786Z" fill="#2F2E41"/>
<path d="M285.455 67.3043C285.661 69.3971 286.588 71.3528 288.077 72.835C289.566 74.3172 291.524 75.2333 293.614 75.4258C295.704 75.6183 297.796 75.0752 299.53 73.8898C301.264 72.7045 302.531 70.9509 303.114 68.9307C303.407 68.6256 306.647 65.1564 305.474 62.3965C304.895 60.8991 304.572 59.3146 304.519 57.7096C304.451 56.6705 303.765 55.6071 301.585 55.0514C301.585 55.0514 297.845 50.26 292.763 52.7727C292.763 52.7727 290.299 52.348 288.472 54.9091C288.472 54.9091 286.66 53.8388 285.896 55.736C285.896 55.736 283.772 59.6057 284.554 63.5528C284.783 64.8194 285.084 66.0719 285.455 67.3043Z" fill="#35383F"/>
<path d="M349.494 18.6752H0.506604C0.371235 18.6722 0.24241 18.6163 0.147718 18.5193C0.0530274 18.4224 0 18.2921 0 18.1565C0 18.0208 0.0530274 17.8905 0.147718 17.7936C0.24241 17.6966 0.371235 17.6407 0.506604 17.6377H349.494C349.629 17.6407 349.758 17.6966 349.852 17.7936C349.947 17.8905 350 18.0208 350 18.1565C350 18.2921 349.947 18.4224 349.852 18.5193C349.758 18.6163 349.629 18.6722 349.494 18.6752Z" fill="#35383F"/>
<path d="M337.96 11.2718H324.285C324.014 11.2658 323.756 11.1539 323.567 10.96C323.378 10.7661 323.271 10.5056 323.271 10.2343C323.271 9.96299 323.378 9.7025 323.567 9.50858C323.756 9.31466 324.014 9.20274 324.285 9.19678H337.96C338.231 9.20274 338.489 9.31466 338.678 9.50858C338.867 9.7025 338.974 9.96299 338.974 10.2343C338.974 10.5056 338.867 10.7661 338.678 10.96C338.489 11.1539 338.231 11.2658 337.96 11.2718Z" fill="#3F3D56"/>
<path d="M337.96 7.38115H324.285C324.014 7.37519 323.756 7.26327 323.567 7.06935C323.378 6.87543 323.271 6.61493 323.271 6.34365C323.271 6.07237 323.378 5.81187 323.567 5.61795C323.756 5.42403 324.014 5.31211 324.285 5.30615H337.96C338.231 5.31211 338.489 5.42403 338.678 5.61795C338.867 5.81187 338.974 6.07237 338.974 6.34365C338.974 6.61493 338.867 6.87543 338.678 7.06935C338.489 7.26327 338.231 7.37519 337.96 7.38115Z" fill="#3F3D56"/>
<path d="M337.96 3.49053H324.285C324.014 3.48458 323.756 3.37265 323.567 3.17873C323.378 2.98481 323.271 2.72431 323.271 2.45303C323.271 2.18174 323.378 1.92125 323.567 1.72733C323.756 1.53341 324.014 1.42149 324.285 1.41553H337.96C338.231 1.42149 338.489 1.53341 338.678 1.72733C338.867 1.92125 338.974 2.18174 338.974 2.45303C338.974 2.72431 338.867 2.98481 338.678 3.17873C338.489 3.37265 338.231 3.48458 337.96 3.49053Z" fill="#3F3D56"/>
<path d="M50.4017 11.4125C53.4788 11.4125 55.9734 8.85775 55.9734 5.70627C55.9734 2.55478 53.4788 0 50.4017 0C47.3246 0 44.8301 2.55478 44.8301 5.70627C44.8301 8.85775 47.3246 11.4125 50.4017 11.4125Z" fill="#3F3D56"/>
<path d="M31.1537 11.4125C34.2308 11.4125 36.7253 8.85775 36.7253 5.70627C36.7253 2.55478 34.2308 0 31.1537 0C28.0765 0 25.582 2.55478 25.582 5.70627C25.582 8.85775 28.0765 11.4125 31.1537 11.4125Z" fill="#3F3D56"/>
<path d="M11.9076 11.4125C14.9847 11.4125 17.4792 8.85775 17.4792 5.70627C17.4792 2.55478 14.9847 0 11.9076 0C8.83044 0 6.33594 2.55478 6.33594 5.70627C6.33594 8.85775 8.83044 11.4125 11.9076 11.4125Z" fill="#3F3D56"/>
</g>
<defs>
<linearGradient id="paint0_linear_1335_42800" x1="116.386" y1="248.367" x2="99.8976" y2="243.595" gradientUnits="userSpaceOnUse">
<stop stop-color="#246BFD"/>
<stop offset="1" stop-color="#5089FF"/>
</linearGradient>
<linearGradient id="paint1_linear_1335_42800" x1="116.809" y1="245.485" x2="103.796" y2="240.846" gradientUnits="userSpaceOnUse">
<stop stop-color="#246BFD"/>
<stop offset="1" stop-color="#5089FF"/>
</linearGradient>
<linearGradient id="paint2_linear_1335_42800" x1="113.423" y1="246.424" x2="100.418" y2="241.764" gradientUnits="userSpaceOnUse">
<stop stop-color="#246BFD"/>
<stop offset="1" stop-color="#5089FF"/>
</linearGradient>
<linearGradient id="paint3_linear_1335_42800" x1="54.7729" y1="249.529" x2="35.529" y2="243.961" gradientUnits="userSpaceOnUse">
<stop stop-color="#246BFD"/>
<stop offset="1" stop-color="#5089FF"/>
</linearGradient>
<linearGradient id="paint4_linear_1335_42800" x1="177.906" y1="248.893" x2="165.644" y2="245.135" gradientUnits="userSpaceOnUse">
<stop stop-color="#246BFD"/>
<stop offset="1" stop-color="#5089FF"/>
</linearGradient>
<linearGradient id="paint5_linear_1335_42800" x1="175.595" y1="242.047" x2="168.825" y2="239.899" gradientUnits="userSpaceOnUse">
<stop stop-color="#246BFD"/>
<stop offset="1" stop-color="#5089FF"/>
</linearGradient>
<linearGradient id="paint6_linear_1335_42800" x1="174.013" y1="205.178" x2="57.652" y2="137.885" gradientUnits="userSpaceOnUse">
<stop stop-color="#246BFD"/>
<stop offset="1" stop-color="#5089FF"/>
</linearGradient>
<clipPath id="clip0_1335_42800">
<rect width="350" height="258" fill="white"/>
</clipPath>
</defs>
</svg>
