<svg width="260" height="179" viewBox="0 0 260 179" fill="none" xmlns="http://www.w3.org/2000/svg">
<g clip-path="url(#clip0_1335_42600)">
<path d="M76.9206 29.2474C84.7695 29.2474 91.1322 22.8681 91.1322 14.9987C91.1322 7.12937 84.7695 0.75 76.9206 0.75C69.0717 0.75 62.709 7.12937 62.709 14.9987C62.709 22.8681 69.0717 29.2474 76.9206 29.2474Z" fill="#FF6584"/>
<path d="M102.567 4.06656C95.6796 3.13315 87.8163 6.86565 86.0312 13.6002C85.5813 12.4028 84.7634 11.3798 83.6956 10.679C82.6279 9.97813 81.3655 9.63577 80.091 9.70134C78.8165 9.76691 77.5957 10.237 76.6051 11.0438C75.6145 11.8505 74.9053 12.9521 74.5801 14.1894L75.3686 14.7556C90.1285 17.9558 105.407 17.8865 120.138 14.5526C115.347 9.50443 109.455 4.99996 102.567 4.06656Z" fill="#35383F"/>
<path d="M73.0301 23.0646C66.1425 22.1312 58.2792 25.8637 56.4941 32.5983C56.0442 31.4009 55.2263 30.3778 54.1585 29.677C53.0908 28.9762 51.8284 28.6338 50.5539 28.6994C49.2794 28.765 48.0586 29.2351 47.068 30.0418C46.0774 30.8485 45.3682 31.9501 45.043 33.1874L45.8315 33.7536C60.5914 36.9538 75.8702 36.8845 90.6006 33.5507C85.8096 28.5025 79.9176 23.998 73.0301 23.0646Z" fill="#35383F"/>
<path d="M125.608 61.1694C123.277 57.3036 120.514 53.1762 116.188 51.9139C111.178 50.4521 106.031 53.356 101.666 56.2216C88.6105 64.7916 76.038 74.079 64.0059 84.0413L64.019 84.1914C73.3865 83.5437 82.754 82.896 92.1214 82.2484C98.8894 81.7804 105.89 81.2479 111.871 78.0379C114.141 76.8198 116.353 75.1927 118.925 75.0793C122.12 74.9384 124.906 77.1758 127.096 79.5134C140.047 93.3408 143.795 114.486 158.325 126.635C149.163 103.98 138.223 82.0896 125.608 61.1694Z" fill="#1F222A"/>
<path d="M205.218 178.451C203.786 176.638 203.201 176.213 201.788 174.383C190.285 159.467 179.473 144.047 169.352 128.122C162.477 117.307 155.944 106.285 149.751 95.0543C146.803 89.7152 143.935 84.3342 141.149 78.9113C138.986 74.7066 136.872 70.4767 134.806 66.2216C134.216 65.0063 133.642 63.7853 133.07 62.5616C131.724 59.684 130.404 56.7923 128.985 53.9537C127.369 50.7184 125.402 47.3267 122.434 45.1531C121.083 44.1233 119.468 43.5002 117.777 43.3566C115.362 43.2001 113.132 44.2004 111.037 45.2928C95.7049 53.3084 81.3512 63.3579 68.3685 74.7932C55.3525 86.2541 43.7183 99.2023 33.7032 113.374C33.3967 113.812 32.6722 113.393 32.9815 112.952C34.1993 111.225 35.4412 109.517 36.7072 107.828C52.4494 86.8364 71.7518 68.7849 93.7319 54.4985C97.4299 52.0958 101.197 49.8058 105.034 47.6284C106.968 46.5304 108.911 45.4464 110.886 44.4294C112.823 43.432 114.879 42.5352 117.092 42.5017C124.621 42.3843 128.52 50.9336 131.198 56.6861C132.039 58.4966 132.891 60.3014 133.753 62.1006C137.011 68.9316 140.393 75.7002 143.902 82.4065C146.067 86.547 148.28 90.6633 150.54 94.7553C157.573 107.498 165.048 119.983 172.966 132.21C183.455 148.406 193.86 162.713 205.809 177.859C206.138 178.278 205.55 178.876 205.218 178.451Z" fill="#35383F"/>
<path d="M67.6249 70.5717C67.1875 70.0828 66.7528 69.5939 66.3125 69.105C62.8404 65.255 59.1148 61.4498 54.3468 59.2426C52.0734 58.157 49.5917 57.5802 47.0738 57.5523C44.4712 57.5607 41.927 58.2452 39.5222 59.2035C38.3853 59.6589 37.2734 60.1758 36.1783 60.7262C34.9271 61.3576 33.6981 62.0309 32.4749 62.7098C30.1787 63.9838 27.9123 65.3137 25.6757 66.6995C21.2254 69.457 16.9146 72.425 12.7431 75.6035C10.5806 77.2519 8.46274 78.9543 6.38953 80.7107C4.46123 82.3423 2.57194 84.0177 0.721646 85.7368C0.325972 86.1028 -0.264808 85.5105 0.130855 85.1445C0.618509 84.6891 1.11173 84.2365 1.60496 83.7895C2.99826 82.5267 4.41387 81.2881 5.8518 80.0737C8.47389 77.8554 11.1639 75.7227 13.9218 73.6757C18.2104 70.4907 22.6466 67.5218 27.2305 64.7689C29.5211 63.3943 31.8433 62.0775 34.197 60.8184C34.9076 60.4384 35.6266 60.0668 36.3539 59.7148C38.0041 58.8802 39.7187 58.1804 41.4812 57.6222C43.9777 56.8125 46.6191 56.5523 49.2251 56.8595C51.7413 57.2264 54.1655 58.0673 56.37 59.3376C61.0514 61.9611 64.6823 66.0178 68.2157 69.9767C68.5725 70.379 67.9844 70.9741 67.6249 70.5717Z" fill="#35383F"/>
<path d="M163.546 110.467L174.764 106.353L180.333 104.311C182.147 103.646 183.957 102.889 185.832 102.412C187.49 101.991 189.175 101.922 190.809 102.476C192.251 103.011 193.571 103.831 194.691 104.888C195.835 105.945 196.899 107.084 197.875 108.298C199.088 109.759 200.283 111.235 201.483 112.707C206.436 118.78 211.356 124.879 216.244 131.005C221.132 137.131 225.988 143.283 230.811 149.46C235.645 155.653 240.446 161.872 245.214 168.117C245.798 168.882 246.382 169.647 246.965 170.413C247.287 170.836 248.014 170.419 247.687 169.99C242.884 163.682 238.047 157.401 233.177 151.145C228.295 144.874 223.379 138.63 218.429 132.412C213.48 126.195 208.497 120.004 203.481 113.841C202.231 112.305 200.979 110.771 199.725 109.239C198.667 107.947 197.622 106.641 196.462 105.438C194.332 103.23 191.672 101.278 188.487 101.225C186.615 101.194 184.803 101.79 183.063 102.421C181.188 103.101 179.317 103.794 177.444 104.481L166.147 108.623L163.323 109.659C162.822 109.843 163.039 110.653 163.546 110.467V110.467Z" fill="#35383F"/>
<path d="M52.8706 64.087C47.1699 61.1495 39.8694 61.7248 34.6309 65.3948C44.623 67.1232 54.5058 69.4358 64.2286 72.3208C60.1911 69.9485 57.0328 66.2317 52.8706 64.087Z" fill="#1F222A"/>
<path d="M34.574 65.3848L33.4766 66.2791C33.8478 65.9661 34.2337 65.6726 34.6301 65.3949C34.6114 65.3916 34.5928 65.388 34.574 65.3848Z" fill="#1F222A"/>
<path d="M194.269 110.508C193.165 109.161 191.971 107.75 190.319 107.202L188.777 107.263C200.516 128.06 216.37 146.232 235.366 160.664C221.667 143.945 207.968 127.227 194.269 110.508Z" fill="#1F222A"/>
<path d="M79.4306 163.148C80.0593 158.08 83.1926 153.085 88.0143 151.436C86.1128 156.653 86.1132 162.376 88.0155 167.594C88.7564 169.603 89.7891 171.76 89.0922 173.786C88.6586 175.046 87.5978 176.01 86.4121 176.613C85.2262 177.215 83.9103 177.503 82.6107 177.784L82.3549 177.996C80.2919 173.326 78.8019 168.217 79.4306 163.148Z" fill="#35383F"/>
<path d="M88.0624 151.531C85.2545 154.686 83.5093 158.647 83.0747 162.853C82.9651 163.756 82.9982 164.672 83.1729 165.565C83.3712 166.43 83.7967 167.225 84.4054 167.869C84.9609 168.481 85.5998 169.043 85.9973 169.779C86.1951 170.159 86.3106 170.577 86.3362 171.005C86.3617 171.433 86.2968 171.862 86.1455 172.263C85.7946 173.272 85.103 174.094 84.3987 174.875C83.6168 175.742 82.7909 176.63 82.4585 177.78C82.4182 177.919 82.205 177.848 82.2453 177.709C82.8235 175.709 84.7596 174.574 85.6829 172.773C86.1137 171.932 86.2945 170.956 85.8907 170.069C85.5375 169.294 84.8791 168.714 84.3113 168.099C83.7084 167.48 83.2659 166.722 83.0225 165.891C82.803 165.01 82.7347 164.097 82.8206 163.193C82.9815 161.153 83.4612 159.152 84.2422 157.262C85.1216 155.1 86.3633 153.105 87.9138 151.363C88.0098 151.255 88.1577 151.424 88.0624 151.531L88.0624 151.531Z" fill="#1F222A"/>
<path d="M83.1359 161.49C82.4421 161.321 81.8307 160.91 81.411 160.331C80.9912 159.752 80.7905 159.042 80.8446 158.329C80.856 158.184 81.0804 158.195 81.0689 158.34C81.0173 159.004 81.2044 159.666 81.5963 160.204C81.9883 160.743 82.5593 161.123 83.2063 161.276C83.3469 161.31 83.2757 161.523 83.1359 161.49Z" fill="#1F222A"/>
<path d="M84.0839 167.596C85.3371 166.846 86.2622 165.65 86.6748 164.246C86.7155 164.107 86.9287 164.178 86.888 164.316C86.4559 165.776 85.4907 167.019 84.1849 167.797C84.0604 167.871 83.9601 167.67 84.0839 167.596V167.596Z" fill="#1F222A"/>
<path d="M85.3301 155.313C85.585 155.435 85.866 155.491 86.1478 155.476C86.4297 155.462 86.7035 155.378 86.9449 155.231C87.0684 155.155 87.1686 155.357 87.0458 155.432C86.7785 155.593 86.4759 155.686 86.1646 155.702C85.8532 155.719 85.5426 155.659 85.2597 155.527C85.2321 155.517 85.2093 155.496 85.196 155.47C85.1827 155.444 85.18 155.413 85.1883 155.385C85.1978 155.357 85.218 155.333 85.2446 155.32C85.2711 155.306 85.3019 155.304 85.3301 155.313Z" fill="#1F222A"/>
<path d="M102.713 160.489C102.637 160.539 102.562 160.588 102.486 160.639C101.47 161.309 100.511 162.06 99.6166 162.885C99.5465 162.948 99.4763 163.012 99.4081 163.077C97.2751 165.088 95.533 167.479 94.2705 170.128C93.7691 171.183 93.3484 172.274 93.0122 173.392C92.5478 174.937 92.167 176.649 91.2478 177.913C91.1534 178.045 91.0509 178.172 90.9408 178.293H82.6345C82.6157 178.283 82.5967 178.275 82.5777 178.266L82.2461 178.281C82.2594 178.222 82.2745 178.161 82.2878 178.103C82.2954 178.068 82.3049 178.034 82.3124 178C82.3181 177.977 82.3238 177.954 82.3276 177.933C82.3295 177.926 82.3314 177.918 82.3333 177.913C82.3371 177.892 82.3428 177.873 82.3466 177.854C82.43 177.514 82.5159 177.173 82.6043 176.833C82.6043 176.831 82.6043 176.831 82.6061 176.83C83.2553 174.231 84.2095 171.72 85.4488 169.347C85.4867 169.277 85.5246 169.205 85.5663 169.134C86.1402 168.084 86.7987 167.083 87.5353 166.14C87.9404 165.625 88.3711 165.131 88.8259 164.66C90.0035 163.444 91.3643 162.422 92.8586 161.631C95.8378 160.054 99.2868 159.45 102.471 160.413C102.552 160.438 102.632 160.463 102.713 160.489Z" fill="#35383F"/>
<path d="M102.693 160.595C98.5568 161.419 94.7846 163.528 91.9123 166.624C91.2821 167.279 90.7589 168.03 90.362 168.849C90.001 169.659 89.8629 170.551 89.9622 171.432C90.0383 172.256 90.2113 173.09 90.0863 173.918C90.016 174.341 89.8573 174.745 89.6207 175.102C89.3841 175.459 89.0749 175.762 88.7133 175.991C87.8271 176.585 86.7809 176.824 85.7497 177.022C84.6048 177.242 83.4121 177.453 82.4566 178.17C82.3408 178.257 82.2131 178.072 82.3287 177.985C83.9912 176.737 86.2191 176.999 88.0378 176.119C88.8864 175.708 89.6167 175.038 89.8269 174.086C90.0108 173.253 89.8331 172.393 89.7489 171.559C89.6395 170.701 89.7415 169.828 90.0459 169.018C90.4 168.182 90.8935 167.412 91.5052 166.742C92.8583 165.211 94.4431 163.902 96.2016 162.865C98.202 161.669 100.392 160.826 102.676 160.371C102.817 160.342 102.833 160.567 102.693 160.595H102.693Z" fill="#1F222A"/>
<path d="M92.7796 165.572C92.327 165.019 92.0855 164.322 92.0981 163.606C92.1108 162.89 92.3768 162.202 92.8486 161.665C92.9444 161.557 93.1169 161.701 93.021 161.809C92.5807 162.309 92.3329 162.95 92.3225 163.616C92.3121 164.283 92.5397 164.931 92.9642 165.444C93.0563 165.556 92.8712 165.683 92.7796 165.572V165.572Z" fill="#1F222A"/>
<path d="M89.87 171.02C91.3211 171.177 92.7781 170.78 93.9504 169.909C94.0665 169.822 94.1942 170.007 94.0783 170.094C92.8566 170.999 91.3396 171.408 89.8299 171.241C89.686 171.225 89.7269 171.004 89.87 171.02H89.87Z" fill="#1F222A"/>
<path d="M98.2403 161.965C98.3709 162.216 98.5615 162.43 98.7952 162.589C99.0288 162.748 99.2981 162.846 99.5789 162.874C99.7229 162.889 99.6818 163.11 99.5388 163.096C99.2287 163.063 98.9315 162.954 98.6729 162.78C98.4144 162.605 98.2025 162.369 98.0557 162.093C98.0397 162.069 98.0337 162.039 98.039 162.009C98.0442 161.98 98.0604 161.954 98.0841 161.937C98.1086 161.92 98.1387 161.913 98.168 161.919C98.1973 161.924 98.2232 161.941 98.2403 161.965Z" fill="#1F222A"/>
<path d="M139.823 135.605C135.749 126.57 135.899 115.117 142.222 107.493C144.337 118.066 150.114 127.547 158.531 134.26C161.786 136.837 165.675 139.363 166.564 143.425C167.117 145.953 166.333 148.626 164.977 150.828C163.621 153.029 161.731 154.84 159.862 156.625L159.652 157.236C151.521 151.592 143.897 144.64 139.823 135.605Z" fill="#35383F"/>
<path d="M142.398 107.603C140.93 115.677 142.037 124.01 145.561 131.418C146.292 133.026 147.27 134.509 148.461 135.812C149.662 137.043 151.17 137.929 152.829 138.379C154.367 138.829 155.992 139.111 157.393 139.928C158.105 140.357 158.718 140.932 159.192 141.615C159.666 142.298 159.991 143.074 160.145 143.892C160.582 145.92 160.267 147.984 159.888 149.992C159.468 152.221 158.996 154.53 159.605 156.772C159.679 157.043 159.254 157.142 159.181 156.871C158.121 152.972 160.181 149.126 159.893 145.206C159.759 143.376 159.074 141.577 157.509 140.517C156.141 139.59 154.466 139.298 152.905 138.855C151.281 138.441 149.783 137.634 148.541 136.505C147.288 135.267 146.254 133.825 145.483 132.239C143.692 128.697 142.467 124.895 141.853 120.972C141.128 116.498 141.172 111.933 141.982 107.474C142.032 107.198 142.448 107.329 142.398 107.603H142.398Z" fill="#1F222A"/>
<path d="M144.285 129.1C142.965 129.524 141.538 129.464 140.258 128.93C138.979 128.397 137.93 127.424 137.299 126.187C137.172 125.936 137.555 125.727 137.682 125.978C138.267 127.131 139.244 128.037 140.437 128.532C141.63 129.026 142.959 129.077 144.186 128.674C144.453 128.587 144.55 129.013 144.285 129.1Z" fill="#1F222A"/>
<path d="M152.018 138.254C153.337 135.74 153.662 132.819 152.929 130.076C152.856 129.804 153.281 129.705 153.353 129.976C154.111 132.833 153.766 135.871 152.388 138.484C152.257 138.733 151.887 138.501 152.018 138.254Z" fill="#1F222A"/>
<path d="M141.688 116.64C142.232 116.583 142.755 116.391 143.207 116.081C143.659 115.771 144.028 115.354 144.28 114.866C144.408 114.615 144.777 114.848 144.65 115.097C144.369 115.634 143.962 116.095 143.463 116.438C142.963 116.781 142.388 116.997 141.787 117.066C141.731 117.077 141.672 117.067 141.624 117.036C141.575 117.006 141.54 116.958 141.525 116.903C141.512 116.846 141.522 116.787 141.553 116.738C141.583 116.689 141.632 116.654 141.688 116.64Z" fill="#1F222A"/>
<path d="M175.707 107.582C175.631 107.74 175.555 107.899 175.481 108.061C174.475 110.2 173.643 112.418 172.995 114.692C172.942 114.867 172.891 115.045 172.843 115.222C171.339 120.718 170.866 126.446 171.448 132.115C171.682 134.37 172.086 136.605 172.658 138.799C173.448 141.829 174.545 145.051 174.297 148.077C174.275 148.393 174.233 148.707 174.172 149.018L160.412 157.445C160.371 157.448 160.332 157.455 160.291 157.458L159.757 157.82C159.719 157.709 159.683 157.593 159.645 157.482C159.624 157.417 159.605 157.351 159.583 157.287C159.569 157.243 159.556 157.2 159.541 157.161C159.536 157.147 159.532 157.132 159.529 157.121C159.514 157.082 159.505 157.045 159.492 157.01C159.287 156.362 159.086 155.711 158.889 155.058C158.887 155.055 158.887 155.055 158.888 155.05C157.402 150.069 156.317 144.921 156.046 139.771C156.038 139.616 156.028 139.458 156.026 139.299C155.917 136.977 155.997 134.65 156.266 132.341C156.417 131.077 156.632 129.821 156.91 128.579C157.634 125.371 158.857 122.298 160.534 119.471C163.878 113.836 168.982 109.336 175.228 107.702C175.388 107.66 175.545 107.62 175.707 107.582Z" fill="#35383F"/>
<path d="M175.783 107.776C169.762 113.336 165.642 120.658 164.007 128.7C163.625 130.425 163.516 132.2 163.685 133.959C163.904 135.667 164.576 137.285 165.63 138.645C166.588 139.932 167.716 141.138 168.345 142.637C168.655 143.409 168.799 144.238 168.768 145.07C168.736 145.902 168.53 146.717 168.162 147.463C167.293 149.346 165.801 150.804 164.293 152.178C162.619 153.705 160.855 155.263 159.996 157.421C159.892 157.682 159.493 157.505 159.597 157.244C161.092 153.491 165.047 151.664 167.171 148.36C168.163 146.818 168.696 144.968 168.084 143.177C167.548 141.611 166.386 140.367 165.405 139.071C164.357 137.76 163.646 136.211 163.332 134.56C163.075 132.816 163.115 131.04 163.452 129.309C164.149 125.399 165.454 121.624 167.32 118.121C169.427 114.111 172.203 110.493 175.528 107.421C175.734 107.231 175.988 107.587 175.783 107.776L175.783 107.776Z" fill="#1F222A"/>
<path d="M164.382 126.079C163.073 125.621 161.97 124.712 161.268 123.513C160.567 122.315 160.313 120.905 160.553 119.536C160.602 119.259 161.033 119.323 160.984 119.601C160.759 120.875 160.995 122.188 161.65 123.302C162.306 124.417 163.337 125.26 164.558 125.68C164.823 125.771 164.646 126.17 164.382 126.079Z" fill="#1F222A"/>
<path d="M165.059 138.056C167.621 136.844 169.635 134.709 170.697 132.076C170.802 131.814 171.201 131.992 171.096 132.252C169.985 134.991 167.885 137.209 165.216 138.463C164.961 138.583 164.805 138.174 165.059 138.055V138.056Z" fill="#1F222A"/>
<path d="M169.788 114.563C170.258 114.846 170.79 115.007 171.337 115.033C171.884 115.059 172.429 114.948 172.923 114.711C173.176 114.588 173.332 114.997 173.08 115.118C172.534 115.378 171.931 115.5 171.327 115.473C170.722 115.446 170.133 115.27 169.612 114.962C169.56 114.938 169.52 114.894 169.5 114.84C169.479 114.787 169.479 114.727 169.501 114.674C169.524 114.621 169.568 114.58 169.622 114.559C169.676 114.538 169.735 114.54 169.788 114.563Z" fill="#1F222A"/>
<path d="M202.171 146.067L217.649 134.286L225.193 141.85L199.979 159.149L202.171 146.067Z" fill="#212121"/>
<path d="M187.735 178.508H134.789L136.646 172.476C148.155 168.299 141.69 159.32 152.638 153.832C179.416 140.408 189.783 100.35 185.862 84.5149L203.41 83.771C203.41 83.771 227.643 152.771 187.735 178.508Z" fill="#212121"/>
<path d="M232.936 150.151C231.354 151.546 229.331 152.332 227.226 152.372C225.12 152.411 223.069 151.701 221.436 150.367L221.402 150.339L221.401 150.294C221.381 149.555 221.266 148.822 221.059 148.112C221.048 148.623 220.974 149.13 220.838 149.623L220.793 149.788L220.674 149.665C220.572 149.559 220.472 149.451 220.379 149.345C219.83 148.72 219.37 148.021 219.012 147.269C217.3 143.739 214.819 140.639 211.753 138.198C211.206 137.751 210.696 137.26 210.23 136.729C208.261 134.483 207.154 131.608 207.107 128.618C207.06 125.629 208.075 122.72 209.972 120.413C211.869 118.106 214.523 116.551 217.459 116.027C220.395 115.502 223.421 116.043 225.996 117.552L226.074 117.598L226.033 117.679C225.735 118.3 225.341 118.869 224.867 119.367C225.52 119.013 226.124 118.576 226.664 118.065L226.721 118.011L226.785 118.056C227.631 118.643 228.402 119.331 229.081 120.105L229.154 120.189C229.673 120.783 230.31 121.262 231.025 121.593C231.74 121.923 232.517 122.099 233.304 122.109C234.589 122.131 235.854 122.431 237.012 122.99C238.17 123.549 239.193 124.352 240.012 125.345C240.831 126.338 241.425 127.497 241.754 128.743C242.084 129.988 242.14 131.29 241.919 132.559L241.909 132.618L241.852 132.636C240.853 132.979 239.795 133.112 238.743 133.025C239.621 133.408 240.557 133.643 241.512 133.72L241.635 133.73L241.596 133.848C241.099 135.346 240.213 136.684 239.03 137.726L238.997 137.756C238.985 137.766 238.973 137.777 238.961 137.788C238.079 138.548 237.358 139.478 236.84 140.522C236.322 141.566 236.017 142.704 235.943 143.867C235.884 145.063 235.588 146.234 235.072 147.313C234.555 148.392 233.829 149.357 232.936 150.151Z" fill="url(#paint0_linear_1335_42600)"/>
<path opacity="0.15" d="M234.555 147.284C234.539 147.605 234.506 147.926 234.455 148.243C235.322 146.908 235.821 145.367 235.901 143.776C235.913 143.532 235.938 143.289 235.973 143.048C235.13 144.307 234.641 145.77 234.555 147.284Z" fill="black"/>
<path opacity="0.15" d="M237.355 136.441C238.062 136.748 238.806 136.959 239.569 137.069C239.862 136.758 240.133 136.426 240.379 136.077C239.407 136.403 238.378 136.527 237.355 136.441Z" fill="black"/>
<path opacity="0.15" d="M240.618 133.512C240.697 134.283 240.675 135.061 240.555 135.826C240.977 135.183 241.313 134.487 241.556 133.756L241.595 133.638L241.472 133.628C241.186 133.604 240.901 133.565 240.618 133.512Z" fill="black"/>
<path opacity="0.15" d="M239.793 125.045C238.974 124.113 237.97 123.363 236.846 122.842C235.722 122.32 234.501 122.04 233.263 122.018C232.475 122.008 231.699 121.832 230.983 121.501C230.268 121.17 229.631 120.692 229.113 120.097L229.039 120.013C228.36 119.239 227.589 118.551 226.744 117.964L226.679 117.92L226.622 117.974C226.082 118.484 225.478 118.922 224.825 119.275C225.3 118.778 225.694 118.208 225.992 117.588L226.032 117.506L225.954 117.46C224.247 116.459 222.328 115.876 220.354 115.76C218.38 115.643 216.406 115.996 214.594 116.79C212.782 117.584 211.183 118.796 209.927 120.328C208.671 121.859 207.794 123.667 207.367 125.603C208.189 124.157 209.288 122.888 210.602 121.87C211.916 120.853 213.419 120.107 215.022 119.676C216.626 119.245 218.299 119.137 219.944 119.359C221.59 119.581 223.175 120.128 224.608 120.969L224.687 121.015L224.646 121.096C224.348 121.717 223.954 122.286 223.479 122.784C224.132 122.43 224.736 121.992 225.276 121.482L225.333 121.428L225.398 121.473C226.243 122.059 227.014 122.747 227.693 123.522L227.767 123.606C228.285 124.2 228.923 124.678 229.638 125.009C230.353 125.34 231.129 125.516 231.917 125.526C233.976 125.561 235.959 126.311 237.528 127.648C239.098 128.985 240.156 130.826 240.522 132.858C240.958 132.78 241.388 132.675 241.81 132.544L241.867 132.527L241.877 132.468C242.108 131.153 242.041 129.803 241.68 128.518C241.319 127.233 240.674 126.046 239.793 125.045Z" fill="black"/>
<path d="M258.526 88.3133C258.526 95.1119 256.12 101.69 251.738 106.878C247.355 112.066 241.28 115.528 234.591 116.648L234.45 116.671L234.34 116.579C232.517 115.055 230.504 113.774 228.352 112.768C229.561 113.88 230.627 115.139 231.524 116.516L231.829 116.976L231.279 117.002C230.804 117.025 230.333 117.037 229.878 117.037C227.203 117.039 224.54 116.669 221.967 115.937C210.276 112.602 197.722 112.032 184.654 114.242C182.414 114.62 180.145 114.809 177.873 114.809C155.591 114.809 137.463 96.6303 137.463 74.2857C137.451 65.7662 140.121 57.4603 145.094 50.5519C150.067 43.6435 157.087 38.4852 165.156 35.8121L165.433 35.7199L165.543 35.9918C166.405 38.0339 166.941 40.1994 167.131 42.4088C167.667 40.0739 167.896 37.6789 167.814 35.2845L167.805 35.0317L168.05 34.97C171.263 34.1672 174.562 33.7615 177.873 33.762L178.232 33.7635C180.767 33.771 183.276 33.2427 185.595 32.2129C187.913 31.183 189.989 29.6749 191.687 27.7867C194.472 24.7183 197.886 22.2911 201.696 20.6721C205.505 19.0531 209.62 18.2807 213.755 18.4081C217.891 18.5354 221.95 19.5595 225.653 21.4099C229.356 23.2603 232.616 25.893 235.207 29.127L235.328 29.2767L235.248 29.4522C233.574 33.1511 231.751 35.8457 229.574 37.8163C232.367 36.5026 234.924 34.7338 237.141 32.582L237.427 32.3037L237.627 32.6492C240.182 37.0409 241.526 42.034 241.524 47.1178L241.524 47.2627C241.524 47.3138 241.524 47.3654 241.524 47.4165C241.524 55.1932 244.523 62.564 249.767 67.6618C252.525 70.3459 254.72 73.5553 256.224 77.1016C257.728 80.6479 258.511 84.4597 258.526 88.3133Z" fill="url(#paint1_linear_1335_42600)"/>
<g opacity="0.15">
<path d="M223.502 20.4336C222.514 22.0771 221.299 23.5719 219.893 24.8732C221.907 23.9252 223.8 22.7387 225.532 21.3391C224.868 21.0109 224.191 20.709 223.502 20.4336Z" fill="black"/>
<path d="M240.085 54.7187C241.643 56.2346 243.025 57.9225 244.205 59.7502C242.43 55.8825 241.515 51.674 241.524 47.4165C241.524 47.3653 241.524 47.3138 241.525 47.2627L241.525 47.1178C241.527 42.034 240.182 37.0409 237.628 32.6491L237.427 32.3037L237.141 32.5819C235.562 34.1126 233.808 35.4515 231.916 36.571C232.404 43.5641 235.316 50.0818 240.085 54.7187Z" fill="black"/>
<path d="M231.843 34.1745L231.843 34.3193C231.843 34.3705 231.843 34.422 231.843 34.4732C231.843 34.7551 231.848 35.0364 231.856 35.3172C233.205 33.4974 234.343 31.5297 235.249 29.452L235.329 29.2764L235.208 29.1267C233.697 27.241 231.956 25.5526 230.025 24.1011C231.227 27.3229 231.843 30.7347 231.843 34.1745Z" fill="black"/>
<path d="M249.767 67.6615C248.389 66.3173 247.164 64.8234 246.116 63.2075C247.993 67.2182 248.919 71.6103 248.821 76.0397C248.722 80.4691 247.602 84.8154 245.548 88.7382C243.494 92.6609 240.562 96.0535 236.981 98.65C233.401 101.247 229.269 102.977 224.91 103.704L224.769 103.728L224.659 103.636C222.836 102.111 220.823 100.83 218.671 99.8249C219.88 100.936 220.945 102.195 221.842 103.573L222.147 104.032L221.597 104.059C221.123 104.082 220.651 104.094 220.196 104.094C217.521 104.096 214.859 103.726 212.285 102.994C200.595 99.659 188.041 99.0888 174.973 101.299C172.732 101.676 170.464 101.866 168.192 101.866C158.287 101.874 148.728 98.2187 141.344 91.601C144.619 98.5379 149.79 104.401 156.257 108.509C162.723 112.617 170.219 114.802 177.874 114.809C180.146 114.809 182.414 114.619 184.655 114.242C197.723 112.032 210.277 112.602 221.967 115.937C224.541 116.669 227.203 117.039 229.878 117.037C230.333 117.037 230.805 117.025 231.279 117.002L231.829 116.975L231.524 116.516C230.627 115.138 229.562 113.879 228.353 112.768C230.505 113.773 232.518 115.054 234.341 116.579L234.451 116.671L234.592 116.647C239.826 115.774 244.716 113.46 248.714 109.963C252.713 106.467 255.664 101.924 257.238 96.8437C258.812 91.7632 258.947 86.344 257.628 81.191C256.308 76.0381 253.587 71.354 249.767 67.6615V67.6615Z" fill="black"/>
</g>
<path d="M114.939 81.0439C113.397 79.378 112.597 76.8782 113.417 74.7593C114.645 76.9023 116.59 78.5408 118.907 79.3848C119.802 79.707 120.83 79.972 121.319 80.7898C121.601 81.3186 121.67 81.9359 121.512 82.5144C121.352 83.0862 121.12 83.6352 120.822 84.148L120.82 84.2961C118.643 83.6635 116.481 82.7098 114.939 81.0439Z" fill="url(#paint2_linear_1335_42600)"/>
<path d="M191.535 129.365C189.993 127.699 189.193 125.199 190.013 123.08C191.241 125.223 193.186 126.862 195.503 127.706C196.397 128.028 197.426 128.293 197.914 129.111C198.197 129.639 198.266 130.257 198.107 130.835C197.948 131.407 197.716 131.956 197.417 132.469L197.416 132.617C195.239 131.984 193.077 131.031 191.535 129.365Z" fill="url(#paint3_linear_1335_42600)"/>
<path d="M227.653 160.552C226.576 158.552 226.426 155.931 227.748 154.085C228.403 156.468 229.876 158.543 231.909 159.941C232.695 160.477 233.625 160.992 233.894 161.906C234.035 162.489 233.948 163.104 233.65 163.625C233.353 164.138 232.991 164.612 232.574 165.033L232.536 165.176C230.586 164.017 228.731 162.552 227.653 160.552Z" fill="url(#paint4_linear_1335_42600)"/>
<path d="M253.687 121.939C252.609 119.939 252.459 117.318 253.782 115.472C254.436 117.855 255.91 119.929 257.942 121.328C258.728 121.864 259.658 122.379 259.927 123.293C260.068 123.876 259.981 124.491 259.683 125.011C259.386 125.525 259.025 125.998 258.607 126.42L258.569 126.563C256.619 125.404 254.764 123.938 253.687 121.939Z" fill="url(#paint5_linear_1335_42600)"/>
<path d="M83.4971 136.823C82.4198 134.823 82.2695 132.202 83.5922 130.356C84.2464 132.739 85.7202 134.814 87.7529 136.212C88.5387 136.748 89.4685 137.263 89.7373 138.177C89.8788 138.76 89.7916 139.375 89.4939 139.896C89.1967 140.409 88.8351 140.883 88.4179 141.304L88.3798 141.447C86.4297 140.288 84.5744 138.823 83.4971 136.823Z" fill="#35383F"/>
<path d="M180.773 155.974C181.709 148.431 186.371 141 193.546 138.545C190.716 146.308 190.717 154.825 193.547 162.588C194.65 165.578 196.187 168.788 195.15 171.802C194.504 173.677 192.926 175.111 191.161 176.008C189.397 176.905 187.439 177.333 185.505 177.752L185.124 178.067C182.055 171.118 179.837 163.516 180.773 155.974Z" fill="#35383F"/>
<path d="M193.618 138.687C189.44 143.381 186.843 149.275 186.197 155.533C186.034 156.878 186.083 158.24 186.343 159.569C186.638 160.856 187.271 162.04 188.177 162.998C189.003 163.909 189.954 164.744 190.546 165.84C190.84 166.406 191.012 167.027 191.05 167.664C191.088 168.301 190.991 168.939 190.766 169.536C190.244 171.037 189.215 172.261 188.167 173.423C187.003 174.713 185.774 176.034 185.28 177.745C185.22 177.952 184.903 177.846 184.963 177.64C185.823 174.664 188.704 172.974 190.078 170.294C190.719 169.044 190.988 167.592 190.387 166.272C189.861 165.117 188.882 164.255 188.037 163.34C187.14 162.419 186.481 161.29 186.119 160.055C185.792 158.743 185.691 157.385 185.819 156.039C186.058 153.005 186.772 150.027 187.934 147.214C189.243 143.997 191.09 141.028 193.397 138.436C193.54 138.276 193.76 138.528 193.618 138.687Z" fill="#1F222A"/>
<path d="M186.286 153.506C185.253 153.255 184.343 152.643 183.719 151.782C183.094 150.92 182.796 149.864 182.876 148.802C182.893 148.587 183.227 148.603 183.21 148.818C183.133 149.807 183.412 150.791 183.995 151.592C184.578 152.394 185.428 152.959 186.39 153.188C186.6 153.238 186.494 153.555 186.286 153.506Z" fill="#1F222A"/>
<path d="M187.696 162.592C189.56 161.476 190.937 159.696 191.551 157.607C191.611 157.4 191.929 157.505 191.868 157.712C191.225 159.884 189.789 161.734 187.846 162.891C187.661 163.001 187.511 162.701 187.696 162.592Z" fill="#1F222A"/>
<path d="M189.552 144.315C189.931 144.495 190.349 144.579 190.769 144.557C191.188 144.536 191.596 144.411 191.955 144.192C192.139 144.08 192.288 144.38 192.105 144.491C191.707 144.731 191.257 144.869 190.794 144.893C190.33 144.918 189.868 144.828 189.447 144.633C189.406 144.618 189.372 144.587 189.352 144.548C189.333 144.509 189.329 144.463 189.341 144.421C189.355 144.379 189.385 144.344 189.425 144.324C189.464 144.304 189.51 144.301 189.552 144.315Z" fill="#1F222A"/>
<path d="M215.416 152.017C215.303 152.09 215.19 152.164 215.077 152.24C213.566 153.236 212.139 154.354 210.808 155.582C210.704 155.675 210.6 155.771 210.498 155.868C207.324 158.86 204.732 162.418 202.853 166.36C202.107 167.929 201.481 169.552 200.981 171.217C200.29 173.515 199.723 176.063 198.355 177.943C198.215 178.141 198.062 178.329 197.899 178.508H185.539C185.511 178.494 185.483 178.483 185.454 178.469L184.961 178.491C184.981 178.404 185.003 178.313 185.023 178.226C185.034 178.175 185.048 178.124 185.06 178.073C185.068 178.039 185.077 178.005 185.082 177.974C185.085 177.963 185.088 177.951 185.091 177.943C185.096 177.912 185.105 177.883 185.11 177.855C185.235 177.349 185.362 176.843 185.494 176.337C185.494 176.334 185.494 176.334 185.497 176.331C186.509 172.478 187.851 168.675 189.727 165.198C189.783 165.093 189.839 164.985 189.901 164.881C190.755 163.318 191.735 161.828 192.831 160.425C193.434 159.659 194.075 158.924 194.752 158.223C196.504 156.414 198.529 154.893 200.752 153.716C205.185 151.369 210.318 150.47 215.055 151.904C215.176 151.94 215.295 151.977 215.416 152.017Z" fill="#35383F"/>
<path d="M215.387 152.174C209.233 153.4 203.62 156.538 199.346 161.144C198.408 162.12 197.629 163.237 197.039 164.455C196.502 165.661 196.296 166.988 196.444 168.3C196.557 169.526 196.815 170.767 196.628 171.999C196.524 172.629 196.288 173.229 195.936 173.76C195.584 174.292 195.124 174.742 194.586 175.083C193.267 175.967 191.71 176.323 190.176 176.618C188.472 176.945 186.697 177.259 185.276 178.326C185.103 178.455 184.913 178.179 185.085 178.05C187.559 176.194 190.874 176.583 193.58 175.273C194.843 174.662 195.93 173.665 196.243 172.248C196.516 171.009 196.252 169.729 196.127 168.489C195.964 167.211 196.115 165.913 196.568 164.708C197.095 163.463 197.83 162.318 198.74 161.32C200.753 159.042 203.112 157.095 205.728 155.551C208.705 153.772 211.963 152.517 215.362 151.84C215.572 151.798 215.596 152.133 215.387 152.174Z" fill="#1F222A"/>
<path d="M200.636 159.58C199.962 158.756 199.603 157.719 199.622 156.654C199.641 155.589 200.036 154.566 200.738 153.766C200.881 153.605 201.138 153.82 200.995 153.981C200.34 154.724 199.971 155.678 199.956 156.67C199.94 157.661 200.279 158.626 200.911 159.39C201.048 159.556 200.772 159.745 200.636 159.58Z" fill="#1F222A"/>
<path d="M196.306 167.686C198.466 167.92 200.634 167.33 202.378 166.033C202.551 165.904 202.741 166.18 202.568 166.308C200.751 167.655 198.493 168.264 196.247 168.016C196.033 167.992 196.093 167.662 196.306 167.686V167.686Z" fill="#1F222A"/>
<path d="M208.763 154.213C208.958 154.586 209.241 154.905 209.589 155.141C209.937 155.377 210.337 155.523 210.755 155.566C210.969 155.587 210.908 155.916 210.695 155.895C210.234 155.846 209.792 155.685 209.407 155.425C209.022 155.165 208.707 154.814 208.489 154.404C208.465 154.367 208.456 154.322 208.464 154.279C208.472 154.235 208.496 154.197 208.531 154.171C208.567 154.146 208.612 154.136 208.656 154.144C208.699 154.152 208.738 154.177 208.763 154.213Z" fill="#1F222A"/>
<path d="M118.038 157.008L107.779 149.199L102.779 154.212L119.491 165.678L118.038 157.008Z" fill="#212121"/>
<path d="M127.606 178.508H162.697L161.466 174.51C153.838 171.742 158.123 165.791 150.867 162.154C133.12 153.257 126.249 126.708 128.848 116.213L117.217 115.72C117.217 115.72 101.156 161.451 127.606 178.508Z" fill="#212121"/>
<path d="M95.656 155.549C95.6069 154.778 95.4047 154.024 95.0612 153.332C94.7177 152.64 94.2399 152.024 93.6557 151.52C93.6478 151.513 93.6399 151.506 93.6319 151.499L93.6096 151.479C92.8256 150.789 92.2387 149.901 91.9089 148.909L91.883 148.831L91.9648 148.824C92.5978 148.773 93.218 148.617 93.8003 148.363C93.103 148.421 92.4013 148.333 91.7396 148.105L91.7017 148.094L91.695 148.055C91.5488 147.214 91.586 146.351 91.8042 145.525C92.0224 144.7 92.4163 143.932 92.9589 143.273C93.5014 142.615 94.1798 142.083 94.9472 141.713C95.7147 141.342 96.553 141.143 97.4045 141.129C97.9265 141.122 98.4412 141.006 98.9151 140.786C99.389 140.567 99.8115 140.25 100.155 139.856L100.204 139.801C100.654 139.287 101.165 138.831 101.725 138.443L101.768 138.413L101.806 138.449C102.164 138.787 102.564 139.077 102.997 139.311C102.682 138.982 102.421 138.604 102.223 138.193L102.196 138.139L102.248 138.108C103.955 137.108 105.96 136.75 107.906 137.097C109.852 137.445 111.611 138.475 112.868 140.005C114.125 141.534 114.799 143.462 114.767 145.443C114.736 147.424 114.002 149.33 112.697 150.818C112.388 151.17 112.051 151.496 111.688 151.792C109.656 153.41 108.012 155.464 106.877 157.804C106.64 158.302 106.335 158.765 105.971 159.18C105.909 159.25 105.843 159.322 105.775 159.392L105.696 159.474L105.667 159.364C105.577 159.038 105.527 158.701 105.52 158.363C105.383 158.833 105.307 159.319 105.294 159.809L105.293 159.838L105.27 159.857C104.424 160.55 103.403 160.993 102.32 161.137C101.237 161.281 100.136 161.121 99.1389 160.674C98.1418 160.227 97.2881 159.512 96.6731 158.607C96.0581 157.702 95.706 156.643 95.656 155.549Z" fill="#35383F"/>
<path opacity="0.15" d="M96.5741 157.814C96.5848 158.027 96.6069 158.239 96.6405 158.45C96.0658 157.565 95.7351 156.543 95.6822 155.489C95.6743 155.327 95.6574 155.166 95.6348 155.006C96.1931 155.841 96.5175 156.811 96.5741 157.814Z" fill="black"/>
<path opacity="0.15" d="M94.7191 150.628C94.2508 150.831 93.7575 150.971 93.2523 151.044C93.0577 150.838 92.878 150.618 92.7148 150.386C93.3596 150.603 94.0416 150.685 94.7191 150.628Z" fill="black"/>
<path opacity="0.15" d="M92.5579 148.686C92.5057 149.197 92.5198 149.713 92.5998 150.22C92.3201 149.794 92.097 149.332 91.9361 148.848L91.9102 148.77L91.9919 148.763C92.1817 148.747 92.3706 148.721 92.5579 148.686Z" fill="black"/>
<path opacity="0.15" d="M93.1033 143.075C93.6461 142.457 94.3114 141.96 95.0566 141.614C95.8018 141.269 96.6106 141.083 97.4315 141.068C97.9534 141.062 98.4681 140.945 98.942 140.726C99.4159 140.507 99.8385 140.19 100.182 139.796L100.231 139.74C100.681 139.227 101.192 138.771 101.752 138.382L101.795 138.352L101.833 138.388C102.191 138.726 102.591 139.016 103.024 139.251C102.709 138.921 102.448 138.544 102.25 138.132L102.223 138.078L102.275 138.048C103.407 137.384 104.678 136.998 105.987 136.921C107.295 136.843 108.603 137.077 109.804 137.604C111.005 138.13 112.065 138.933 112.898 139.948C113.73 140.963 114.311 142.162 114.594 143.445C114.05 142.486 113.321 141.645 112.45 140.971C111.579 140.296 110.583 139.802 109.521 139.516C108.458 139.231 107.349 139.159 106.258 139.306C105.168 139.453 104.117 139.816 103.167 140.373L103.115 140.404L103.142 140.458C103.34 140.869 103.601 141.246 103.916 141.576C103.483 141.342 103.083 141.052 102.725 140.713L102.687 140.678L102.644 140.707C102.084 141.096 101.573 141.552 101.123 142.065L101.074 142.121C100.73 142.515 100.308 142.832 99.834 143.051C99.3601 143.27 98.8454 143.387 98.3235 143.393C96.9588 143.417 95.6443 143.914 94.6043 144.8C93.5642 145.686 92.8629 146.906 92.62 148.253C92.3315 148.201 92.0465 148.132 91.7665 148.045L91.7286 148.033L91.7219 147.994C91.5688 147.123 91.6135 146.228 91.8526 145.376C92.0917 144.525 92.5192 143.738 93.1033 143.075Z" fill="black"/>
<path d="M86.493 105.043C89.9682 101.665 91.9561 96.7795 91.9561 91.6254C91.9561 91.5915 91.9561 91.5573 91.9559 91.5234L91.9556 91.4274C91.9543 88.058 92.8456 84.7488 94.5384 81.8381L94.6715 81.6092L94.8611 81.7936C96.3301 83.2197 98.0246 84.392 99.8759 85.2627C98.4333 83.9567 97.2247 82.1707 96.1153 79.7193L96.0625 79.6029L96.1425 79.5037C97.86 77.3603 100.02 75.6155 102.475 74.3891C104.929 73.1627 107.619 72.484 110.36 72.3996C113.101 72.3152 115.828 72.8271 118.353 73.9001C120.877 74.9731 123.14 76.5818 124.986 78.6154C126.111 79.8669 127.487 80.8664 129.024 81.5489C130.56 82.2315 132.223 82.5816 133.904 82.5766L134.141 82.5756C136.336 82.5753 138.523 82.8442 140.652 83.3763L140.814 83.4171L140.809 83.5847C140.754 85.1716 140.906 86.759 141.261 88.3064C141.387 86.8422 141.742 85.4069 142.313 84.0534L142.386 83.8733L142.57 83.9344C148.61 85.944 153.74 90.0437 157.04 95.4994C160.34 100.955 161.596 107.41 160.582 113.709C159.568 120.009 156.35 125.74 151.506 129.878C146.661 134.015 140.506 136.289 134.141 136.291C132.636 136.291 131.132 136.165 129.647 135.915C120.986 134.45 112.666 134.828 104.918 137.038C103.212 137.524 101.448 137.769 99.6747 137.767C99.3731 137.767 99.0605 137.76 98.746 137.744L98.3817 137.727L98.5839 137.422C99.1782 136.509 99.8843 135.675 100.686 134.938C99.2595 135.605 97.9254 136.454 96.7169 137.464L96.6443 137.525L96.5505 137.509C93.0815 136.931 89.841 135.397 87.1907 133.079C84.5405 130.762 82.5847 127.751 81.5415 124.384C80.4984 121.017 80.409 117.425 81.2834 114.01C82.1577 110.595 83.9613 107.49 86.493 105.043Z" fill="#35383F"/>
<g opacity="0.15">
<path d="M103.9 73.7417C104.555 74.831 105.36 75.8217 106.293 76.6841C104.958 76.0558 103.703 75.2695 102.555 74.3418C102.995 74.1243 103.444 73.9243 103.9 73.7417Z" fill="black"/>
<path d="M92.9099 96.4647C91.8772 97.4694 90.9613 98.5882 90.1797 99.7995C91.356 97.2361 91.9621 94.4468 91.9561 91.6251C91.9561 91.5912 91.9561 91.5571 91.9558 91.5231L91.9556 91.4271C91.9543 88.0578 92.8456 84.7485 94.5384 81.8378L94.6715 81.6089L94.8611 81.7933C95.9079 82.8078 97.0702 83.6951 98.3241 84.4371C98.0009 89.0719 96.0709 93.3916 92.9099 96.4647Z" fill="black"/>
<path d="M98.3725 82.8486L98.3728 82.9447C98.373 82.9786 98.373 83.0127 98.373 83.0466C98.373 83.2335 98.3696 83.4199 98.3644 83.606C97.4702 82.3999 96.7157 81.0958 96.1153 79.7187L96.0625 79.6024L96.1425 79.5032C97.1442 78.2534 98.2981 77.1344 99.5774 76.1724C98.7809 78.3077 98.3728 80.5689 98.3725 82.8486Z" fill="black"/>
<path d="M86.493 105.043C87.4064 104.152 88.2181 103.162 88.913 102.091C87.6686 104.749 87.055 107.66 87.1203 110.596C87.1856 113.531 87.928 116.412 89.2894 119.012C90.6508 121.611 92.5941 123.86 94.9672 125.581C97.3402 127.302 100.079 128.448 102.967 128.931L103.061 128.946L103.134 128.885C104.342 127.875 105.676 127.026 107.103 126.36C106.301 127.096 105.595 127.931 105.001 128.843L104.799 129.148L105.163 129.166C105.477 129.181 105.79 129.189 106.092 129.189C107.865 129.19 109.629 128.945 111.335 128.46C119.083 126.25 127.403 125.872 136.064 127.336C137.549 127.587 139.052 127.712 140.558 127.712C147.123 127.717 153.458 125.295 158.352 120.909C156.181 125.507 152.754 129.392 148.469 132.115C144.183 134.838 139.215 136.286 134.141 136.291C132.636 136.291 131.132 136.165 129.647 135.915C120.986 134.45 112.666 134.828 104.918 137.038C103.212 137.523 101.448 137.768 99.6747 137.767C99.3731 137.767 99.0605 137.759 98.746 137.744L98.3817 137.726L98.5839 137.422C99.1782 136.509 99.8843 135.674 100.686 134.938C99.2595 135.604 97.9254 136.453 96.7169 137.464L96.6444 137.524L96.5505 137.509C93.0815 136.93 89.841 135.397 87.1907 133.079C84.5405 130.761 82.5847 127.751 81.5415 124.384C80.4984 121.017 80.409 117.425 81.2834 114.01C82.1577 110.594 83.9613 107.49 86.493 105.043Z" fill="black"/>
</g>
<path d="M13.5054 157.936C10.4368 157.935 7.46779 156.844 5.12618 154.856C2.78457 152.867 1.22213 150.111 0.71665 147.076L0.706198 147.012L0.747494 146.962C1.43566 146.135 2.01388 145.222 2.46769 144.245C1.96608 144.794 1.39779 145.278 0.776144 145.684L0.568663 145.823L0.556698 145.573C0.546248 145.358 0.541021 145.144 0.541021 144.938C0.539975 143.724 0.707028 142.516 1.0374 141.348C2.54253 136.044 2.7999 130.349 1.80243 124.419C1.632 123.403 1.54636 122.374 1.54641 121.343C1.54794 116.986 3.09619 112.772 5.91393 109.456C8.73166 106.139 12.6349 103.937 16.9246 103.243C21.2144 102.548 25.6105 103.408 29.3259 105.667C33.0412 107.926 35.8331 111.438 37.2017 115.573L37.2433 115.699L37.1206 115.749C36.1989 116.14 35.2215 116.383 34.2243 116.469C35.2782 116.712 36.3591 116.816 37.4399 116.779L37.554 116.775L37.5818 116.886C37.9442 118.344 38.1273 119.84 38.127 121.343L38.1264 121.505C38.123 122.656 38.3614 123.794 38.8262 124.846C39.291 125.898 39.9717 126.84 40.824 127.61C42.2089 128.874 43.3044 130.423 44.0351 132.151C44.7659 133.88 45.1145 135.746 45.057 137.623C44.9995 139.499 44.5373 141.341 43.7021 143.021C42.867 144.701 41.6787 146.18 40.2191 147.356L40.1515 147.41L40.0723 147.374C38.4028 146.615 37.1865 145.787 36.2971 144.8C36.8901 146.067 37.6884 147.227 38.6596 148.233L38.7852 148.363L38.6293 148.454C36.6471 149.613 34.3935 150.223 32.0989 150.222L32.0335 150.222C32.0104 150.221 31.9872 150.221 31.9641 150.221C30.2694 150.204 28.5882 150.525 27.019 151.167C25.4499 151.81 24.0245 152.759 22.8264 153.961C21.6149 155.213 20.1664 156.209 18.5658 156.891C16.9652 157.574 15.2447 157.929 13.5054 157.936Z" fill="#35383F"/>
<path d="M8.9176 178.416C8.86131 178.416 8.80693 178.395 8.76443 178.358C8.72194 178.321 8.69418 178.27 8.68625 178.214C8.67631 178.144 7.70262 171.103 8.5771 161.746C9.38469 153.104 11.9782 140.657 19.7473 130.434C19.7659 130.41 19.7892 130.389 19.8158 130.374C19.8423 130.358 19.8717 130.348 19.9021 130.344C19.9326 130.34 19.9636 130.342 19.9933 130.35C20.0231 130.357 20.0509 130.371 20.0754 130.39C20.0999 130.408 20.1204 130.432 20.1359 130.458C20.1513 130.485 20.1614 130.515 20.1655 130.545C20.1696 130.576 20.1676 130.607 20.1598 130.637C20.1519 130.666 20.1382 130.694 20.1195 130.719C12.4175 140.853 9.84493 153.209 9.04303 161.79C8.17363 171.093 9.13969 178.079 9.14955 178.148C9.15424 178.181 9.15175 178.215 9.14225 178.248C9.13274 178.28 9.11644 178.31 9.09445 178.335C9.07246 178.36 9.04529 178.381 9.01478 178.395C8.98427 178.409 8.95113 178.416 8.9176 178.416Z" fill="#212121"/>
<path d="M12.8006 143.952C12.7511 143.952 12.703 143.936 12.663 143.907C12.623 143.878 12.5932 143.837 12.5779 143.79C12.5626 143.743 12.5626 143.692 12.5778 143.645C12.5931 143.598 12.6228 143.557 12.6628 143.527C14.8766 142.025 17.268 140.805 19.7822 139.894C23.7101 138.452 29.683 137.145 35.832 139.107C35.8614 139.116 35.8886 139.131 35.9122 139.151C35.9358 139.171 35.9552 139.195 35.9694 139.223C35.9836 139.25 35.9922 139.28 35.9949 139.311C35.9975 139.342 35.994 139.373 35.9847 139.402C35.9754 139.431 35.9603 139.459 35.9405 139.482C35.9206 139.506 35.8963 139.525 35.8689 139.539C35.8415 139.554 35.8117 139.562 35.781 139.565C35.7503 139.567 35.7194 139.564 35.6901 139.554C29.6671 137.632 23.8024 138.918 19.9431 140.334C17.4693 141.23 15.1162 142.43 12.9379 143.907C12.898 143.936 12.8499 143.952 12.8006 143.952Z" fill="#212121"/>
<path d="M37.88 134.216C38.1502 134.143 38.4009 134.01 38.6146 133.829C38.8283 133.647 38.9996 133.421 39.1167 133.166C39.2337 132.911 39.2935 132.633 39.2919 132.352C39.2903 132.071 39.2273 131.794 39.1073 131.541L43.2356 118.046L40.1991 117.443L36.4234 130.67C36.0116 130.9 35.6984 131.274 35.543 131.721C35.3877 132.167 35.4011 132.655 35.5807 133.092C35.7602 133.529 36.0934 133.885 36.5172 134.092C36.941 134.299 37.4259 134.344 37.88 134.216Z" fill="#FFB6B6"/>
<path d="M43.4759 114.104C43.0377 113.93 42.5554 113.9 42.0993 114.02V114.023C41.9456 114.06 41.7968 114.115 41.6563 114.188C41.5021 114.264 41.358 114.359 41.2271 114.47C40.9441 114.706 40.7255 115.009 40.5918 115.353L38.5799 118.868C38.522 118.967 38.4866 119.078 38.476 119.193C38.4654 119.308 38.48 119.424 38.5186 119.533C38.5563 119.642 38.6172 119.742 38.697 119.825C38.7769 119.908 38.8738 119.974 38.9811 120.016L39.4159 120.186L41.4807 120.999L42.2415 121.301L42.7542 121.502C42.8613 121.545 42.9763 121.563 43.0913 121.557C43.2064 121.551 43.3187 121.52 43.4205 121.466C43.5224 121.412 43.6115 121.337 43.6817 121.245C43.7518 121.153 43.8014 121.048 43.827 120.935L44.7355 116.998C44.9503 116.447 44.9384 115.833 44.7023 115.29C44.4662 114.748 44.0252 114.321 43.4759 114.104Z" fill="#212121"/>
<path d="M49.459 174.826H51.5612L52.5616 166.697H49.459V174.826Z" fill="#FFB6B6"/>
<path d="M48.3496 178.478H49.857L50.1261 177.051L50.8153 178.478H54.8134C55.005 178.478 55.1917 178.416 55.346 178.302C55.5004 178.188 55.6144 178.028 55.6715 177.845C55.7285 177.661 55.7256 177.464 55.6631 177.283C55.6006 177.101 55.4818 176.944 55.3241 176.835L52.1313 174.624V173.182L48.773 173.383L48.3496 178.478Z" fill="#2F2E41"/>
<path d="M29.0176 170.644L30.8255 171.719L35.8219 165.239L33.1534 163.652L29.0176 170.644Z" fill="#FFB6B6"/>
<path d="M26.2051 173.218L27.5017 173.989L28.4591 172.899L28.3258 174.479L31.7647 176.524C31.9295 176.622 32.1213 176.664 32.312 176.645C32.5027 176.626 32.6824 176.547 32.8248 176.418C32.9671 176.29 33.0648 176.119 33.1035 175.93C33.1421 175.742 33.1198 175.547 33.0397 175.372L31.4183 171.838L32.1522 170.597L29.1615 169.052L26.2051 173.218Z" fill="#2F2E41"/>
<path d="M50.3976 122.85L51.4192 129.379L41.7148 129.507L42.9919 123.234L50.3976 122.85Z" fill="#FFB6B6"/>
<path d="M51.4573 129.296L54.229 136.035L54.4309 154.059L52.0657 171.267H49.4481L48.3757 154.339L45.7379 142.756L43.1363 154.871L35.0472 166.728H31.0723L38.3801 153.662L39.2259 139.428C39.2259 139.428 38.6987 133.39 41.3965 129.826L42.0532 127.924L51.4573 129.296Z" fill="#2F2E41"/>
<path d="M51.5912 116.836C51.5857 116.778 51.5773 116.716 51.5661 116.658C51.3564 115.249 50.5985 113.981 49.4585 113.131C48.3184 112.281 46.889 111.919 45.483 112.123C44.1626 112.322 42.9598 112.996 42.1001 114.02V114.023C42.0555 114.076 42.0137 114.132 41.9719 114.188C41.8967 114.283 41.827 114.383 41.7601 114.484C41.1561 115.399 40.845 116.477 40.8684 117.574V117.577C40.8772 117.999 40.9361 118.42 41.044 118.828C41.2296 119.543 41.3756 120.268 41.4815 120.999C41.5539 121.463 41.6097 121.918 41.6515 122.363C41.6765 122.586 41.696 122.807 41.7128 123.022V123.025C41.7964 124.089 41.8242 125.045 41.8493 125.785C41.8604 126.187 41.8716 126.523 41.8911 126.78C41.8916 126.797 41.8934 126.813 41.8967 126.83C41.9181 127.003 41.992 127.165 42.1084 127.294C42.1228 127.312 42.1386 127.329 42.1558 127.344C42.2794 127.456 42.4289 127.534 42.5905 127.573C42.6465 127.584 42.7034 127.59 42.7605 127.59H42.7772L44.4018 126.83L45.6837 126.232L50.0335 124.198C50.2118 124.195 50.3847 124.136 50.5291 124.032C50.6735 123.927 50.7826 123.78 50.8416 123.612V123.609C50.8472 123.586 50.8556 123.564 50.8611 123.539C51.0952 122.614 51.5104 121.622 51.6581 120.027C51.6776 119.798 51.6943 119.56 51.7027 119.306V119.303C51.7272 118.479 51.6899 117.655 51.5912 116.836Z" fill="#212121"/>
<path d="M45.5504 111.24C47.8164 111.24 49.6534 109.398 49.6534 107.126C49.6534 104.854 47.8164 103.012 45.5504 103.012C43.2843 103.012 41.4473 104.854 41.4473 107.126C41.4473 109.398 43.2843 111.24 45.5504 111.24Z" fill="#FFB6B6"/>
<path d="M41.1685 113.52C40.3042 113.521 39.4755 113.866 38.8644 114.479C38.2532 115.091 37.9093 115.922 37.9082 116.789V123.564C37.9079 124.326 38.1732 125.063 38.6582 125.65C39.1431 126.236 39.8172 126.634 40.5638 126.774H40.5666C40.7651 126.811 40.9666 126.83 41.1685 126.83H45.6828V113.52H41.1685Z" fill="url(#paint6_linear_1335_42600)"/>
<path d="M41.2285 114.188V119.13C41.2285 119.281 41.2884 119.426 41.395 119.533C41.5016 119.64 41.6462 119.7 41.797 119.7C41.9477 119.7 42.0923 119.64 42.199 119.533C42.3056 119.426 42.3655 119.281 42.3655 119.13V114.188H41.2285Z" fill="#212121"/>
<path d="M43.7339 122.363H40.429C40.3348 122.363 40.2414 122.382 40.1544 122.418C40.0674 122.454 39.9883 122.507 39.9218 122.574C39.8552 122.641 39.8026 122.721 39.7667 122.808C39.7309 122.895 39.7126 122.989 39.7129 123.084V125.064C39.7127 125.255 39.788 125.438 39.9223 125.573C40.0565 125.708 40.2388 125.785 40.429 125.785H43.7339C43.9245 125.785 44.1071 125.709 44.2418 125.574C44.3765 125.439 44.4524 125.255 44.4529 125.064V123.084C44.4529 122.989 44.4343 122.895 44.3982 122.808C44.3621 122.72 44.3091 122.641 44.2423 122.574C44.1756 122.507 44.0963 122.454 44.0091 122.418C43.9219 122.381 43.8284 122.363 43.7339 122.363Z" fill="#212121"/>
<path d="M49.8385 121.736C50.7398 120.589 51.2155 119.164 51.1843 117.704C51.1843 114.768 49.4404 112.38 47.2969 112.38C46.1461 112.38 45.0619 113.07 44.3223 114.272L44.6451 114.472C45.314 113.384 46.2806 112.761 47.2969 112.761C49.2313 112.761 50.8051 114.978 50.8051 117.704C50.8366 119.074 50.3927 120.412 49.5491 121.49L49.8385 121.736Z" fill="url(#paint7_linear_1335_42600)"/>
<path d="M58.7802 131.676C58.9042 131.424 58.9717 131.148 58.9779 130.868C58.9841 130.587 58.9288 130.308 58.8159 130.051C58.7031 129.794 58.5354 129.565 58.3247 129.38C58.114 129.195 57.8654 129.059 57.5964 128.981L50.259 116.935L47.7949 118.813L55.1668 130.418C55.0657 130.88 55.137 131.362 55.3672 131.775C55.5975 132.187 55.9707 132.501 56.4161 132.656C56.8615 132.811 57.3482 132.797 57.7839 132.616C58.2196 132.436 58.5741 132.101 58.7802 131.676Z" fill="#FFB6B6"/>
<path d="M52.8063 118.404L51.5663 116.658L50.9031 115.725L50.4711 115.115C50.3355 114.847 50.1468 114.61 49.9166 114.417C49.5236 114.087 49.0292 113.903 48.5167 113.896C48.0043 113.889 47.5051 114.059 47.1032 114.378C46.7013 114.697 46.4214 115.145 46.3106 115.647C46.1997 116.149 46.2647 116.673 46.4947 117.133L47.7821 120.974C47.8192 121.084 47.8794 121.184 47.9586 121.268C48.0377 121.352 48.1339 121.418 48.2406 121.461C48.3474 121.504 48.4622 121.524 48.5773 121.519C48.6925 121.514 48.8052 121.485 48.9079 121.432L49.3231 121.22L49.9779 120.885L50.5659 120.586H50.5687L51.6582 120.027L52.0288 119.84L52.5193 119.588C52.6217 119.535 52.7115 119.461 52.7827 119.37C52.8539 119.279 52.9048 119.174 52.932 119.062C52.9593 118.949 52.9621 118.833 52.9404 118.719C52.9187 118.606 52.873 118.498 52.8063 118.404Z" fill="#212121"/>
<path d="M246.705 178.75H0.796092C0.762378 178.75 0.728973 178.744 0.697794 178.731C0.666615 178.718 0.638274 178.699 0.614395 178.675C0.590517 178.651 0.57157 178.623 0.558643 178.592C0.545716 178.56 0.539062 178.527 0.539062 178.493C0.539062 178.459 0.545716 178.426 0.558643 178.395C0.57157 178.363 0.590517 178.335 0.614395 178.311C0.638274 178.287 0.666615 178.269 0.697794 178.256C0.728973 178.243 0.762378 178.236 0.796092 178.236H246.705C246.773 178.236 246.838 178.263 246.886 178.312C246.934 178.36 246.961 178.425 246.961 178.493C246.961 178.561 246.934 178.627 246.886 178.675C246.838 178.723 246.773 178.75 246.705 178.75Z" fill="#35383F"/>
<path d="M130.87 157.218C129.793 155.219 129.643 152.598 130.965 150.752C131.619 153.135 133.093 155.209 135.126 156.608C135.912 157.144 136.842 157.659 137.11 158.573C137.252 159.156 137.165 159.771 136.867 160.291C136.57 160.805 136.208 161.278 135.791 161.7L135.753 161.843C133.803 160.684 131.947 159.218 130.87 157.218Z" fill="#35383F"/>
<path d="M64.8272 106.649C63.7499 104.649 63.5995 102.028 64.9222 100.183C65.5764 102.566 67.0503 104.64 69.0829 106.038C69.8688 106.575 70.7986 107.089 71.0674 108.004C71.2088 108.586 71.1217 109.201 70.824 109.722C70.5268 110.235 70.1652 110.709 69.748 111.13L69.7099 111.273C67.7597 110.115 65.9044 108.649 64.8272 106.649Z" fill="#35383F"/>
<path d="M43.0471 103.769V103.772C43.0475 103.951 43.0247 104.13 42.9793 104.303C42.9721 104.333 42.9635 104.365 42.9534 104.395V104.397C42.8567 104.706 42.6899 104.988 42.4661 105.222C42.2423 105.455 41.9675 105.634 41.6634 105.743C41.6187 105.761 41.5726 105.775 41.5265 105.788C41.4293 105.816 41.33 105.837 41.2296 105.849C41.1393 105.862 41.0483 105.868 40.9571 105.868C40.8859 105.868 40.8147 105.865 40.7438 105.858C40.5779 105.841 40.4148 105.803 40.2581 105.746C40.2335 105.739 40.2095 105.73 40.186 105.72C40.1742 105.716 40.1627 105.711 40.1514 105.706C39.8899 105.596 39.6534 105.434 39.4563 105.23C39.2591 105.026 39.1053 104.784 39.0044 104.518C38.9034 104.253 38.8573 103.969 38.8689 103.685C38.8805 103.401 38.9496 103.123 39.0719 102.866L39.0733 102.865C39.1758 102.65 39.3148 102.454 39.4841 102.287C39.875 101.896 40.4049 101.676 40.9571 101.677C40.9846 101.676 41.012 101.677 41.0393 101.68C41.3573 101.693 41.6682 101.779 41.9484 101.93C42.2286 102.081 42.4707 102.295 42.6565 102.554C42.8173 102.778 42.9319 103.031 42.9937 103.3C43.0291 103.454 43.047 103.611 43.0471 103.769Z" fill="#2F2E41"/>
<path d="M40.6348 102.499C40.451 101.805 40.054 101.186 39.4999 100.73C38.9458 100.275 38.2628 100.006 37.5477 99.9616C36.8327 99.9172 36.1218 100.1 35.5158 100.483C34.9099 100.866 34.4396 101.431 34.1718 102.097C33.7228 103.214 33.8874 104.481 33.6185 105.654C33.3474 106.719 32.7353 107.666 31.876 108.349C31.0167 109.033 29.9577 109.414 28.8613 109.436L32.929 111.08C33.3634 111.302 33.8503 111.401 34.3369 111.366C35.0446 111.245 35.5371 110.567 35.7365 109.876C35.9359 109.185 35.9197 108.45 36.046 107.742C36.2098 106.871 36.5828 106.054 37.1327 105.361C37.6827 104.667 38.3929 104.119 39.202 103.763C39.6599 103.567 40.1689 103.419 40.4927 103.039C40.8166 102.66 40.7985 101.944 40.3292 101.777" fill="#2F2E41"/>
<path d="M47.2267 102.515C46.675 101.306 45.2191 101.552 43.9027 101.712C43.2454 101.814 42.6227 102.074 42.0886 102.472C41.5545 102.869 41.125 103.391 40.8375 103.992C40.2749 105.211 40.1673 106.592 40.5344 107.883C40.7313 108.763 41.2013 109.557 41.8768 110.152C42.572 110.713 45.8401 112.038 46.1121 110.897C45.772 112.386 46.4562 112.153 47.469 113.294C47.9936 111.715 48.2395 108.738 48.7641 107.158L49.001 106.444C49.1674 105.943 49.3341 105.441 49.4544 104.926C49.6055 104.28 49.6636 103.539 49.2633 103.011C48.8629 102.482 47.8544 102.462 47.652 103.094" fill="#2F2E41"/>
<path d="M46.566 107.546L46.3906 106.427C46.5098 105.034 46.3152 102.82 47.2266 102.515L47.7839 103.074C47.4314 103.192 46.7609 105.274 46.566 107.546Z" fill="#FF6584"/>
</g>
<defs>
<linearGradient id="paint0_linear_1335_42600" x1="242.051" y1="152.374" x2="200.192" y2="140.767" gradientUnits="userSpaceOnUse">
<stop stop-color="#246BFD"/>
<stop offset="1" stop-color="#5089FF"/>
</linearGradient>
<linearGradient id="paint1_linear_1335_42600" x1="258.526" y1="117.037" x2="119.913" y2="67.7125" gradientUnits="userSpaceOnUse">
<stop stop-color="#246BFD"/>
<stop offset="1" stop-color="#5089FF"/>
</linearGradient>
<linearGradient id="paint2_linear_1335_42600" x1="121.595" y1="84.2961" x2="111.311" y2="81.6369" gradientUnits="userSpaceOnUse">
<stop stop-color="#246BFD"/>
<stop offset="1" stop-color="#5089FF"/>
</linearGradient>
<linearGradient id="paint3_linear_1335_42600" x1="198.191" y1="132.617" x2="187.907" y2="129.958" gradientUnits="userSpaceOnUse">
<stop stop-color="#246BFD"/>
<stop offset="1" stop-color="#5089FF"/>
</linearGradient>
<linearGradient id="paint4_linear_1335_42600" x1="233.96" y1="165.176" x2="225.038" y2="163.506" gradientUnits="userSpaceOnUse">
<stop stop-color="#246BFD"/>
<stop offset="1" stop-color="#5089FF"/>
</linearGradient>
<linearGradient id="paint5_linear_1335_42600" x1="259.993" y1="126.563" x2="251.071" y2="124.893" gradientUnits="userSpaceOnUse">
<stop stop-color="#246BFD"/>
<stop offset="1" stop-color="#5089FF"/>
</linearGradient>
<linearGradient id="paint6_linear_1335_42600" x1="45.6828" y1="126.83" x2="35.9337" y2="125.179" gradientUnits="userSpaceOnUse">
<stop stop-color="#246BFD"/>
<stop offset="1" stop-color="#5089FF"/>
</linearGradient>
<linearGradient id="paint7_linear_1335_42600" x1="51.1858" y1="121.736" x2="42.7155" y2="119.934" gradientUnits="userSpaceOnUse">
<stop stop-color="#246BFD"/>
<stop offset="1" stop-color="#5089FF"/>
</linearGradient>
<clipPath id="clip0_1335_42600">
<rect width="260" height="178" fill="white" transform="translate(0 0.75)"/>
</clipPath>
</defs>
</svg>
