<svg width="25" height="25" viewBox="0 0 25 25" fill="none" xmlns="http://www.w3.org/2000/svg">
<g clip-path="url(#clip0_1601_4734)">
<path d="M24.0088 12.4747C24.0088 11.4914 23.9304 10.7739 23.7608 10.0298H12.7305V14.4678H19.205C19.0745 15.5707 18.3696 17.2316 16.8032 18.3477L16.7812 18.4963L20.2688 21.2465L20.5104 21.271C22.7295 19.1849 24.0088 16.1154 24.0088 12.4747Z" fill="#4285F4"/>
<path d="M12.7296 24.1673C15.9016 24.1673 18.5645 23.1043 20.5095 21.2707L16.8023 18.3473C15.8102 19.0516 14.4787 19.5432 12.7296 19.5432C9.6228 19.5432 6.98598 17.4571 6.04603 14.5737L5.90825 14.5856L2.2818 17.4425L2.23438 17.5767C4.1663 21.4832 8.13462 24.1673 12.7296 24.1673Z" fill="#34A853"/>
<path d="M6.04719 14.5738C5.79917 13.8297 5.65564 13.0324 5.65564 12.2086C5.65564 11.3847 5.79917 10.5875 6.03414 9.84342L6.02757 9.68494L2.35568 6.78223L2.23554 6.84039C1.4393 8.46149 0.982422 10.2819 0.982422 12.2086C0.982422 14.1353 1.4393 15.9556 2.23554 17.5767L6.04719 14.5738Z" fill="#FBBC05"/>
<path d="M12.7295 4.87403C14.9356 4.87403 16.4237 5.84401 17.2722 6.65461L20.5878 3.35928C18.5515 1.4326 15.9015 0.25 12.7295 0.25C8.13462 0.25 4.1663 2.93406 2.23438 6.84056L6.03297 9.84359C6.98597 6.9602 9.62279 4.87403 12.7295 4.87403Z" fill="#EB4335"/>
</g>
<defs>
<clipPath id="clip0_1601_4734">
<rect width="23.04" height="24" fill="white" transform="translate(0.980469 0.25)"/>
</clipPath>
</defs>
</svg>
