<svg width="18" height="16" viewBox="0 0 18 16" fill="none" xmlns="http://www.w3.org/2000/svg">
<g id="Group">
<path id="Union" fill-rule="evenodd" clip-rule="evenodd" d="M7.16874 10.7103C7.68914 11.0631 8.32337 11.2764 8.99825 11.2764C10.7871 11.2764 12.2426 9.80785 12.2426 8.00291C12.2426 7.32196 12.0312 6.68203 11.6815 6.15696L10.7952 7.05122C10.9416 7.33017 11.0229 7.65834 11.0229 8.00291C11.0229 9.12689 10.1122 10.0458 8.99825 10.0458C8.65674 10.0458 8.3315 9.96373 8.05504 9.81605L7.16874 10.7103ZM14.3567 3.45777C15.5357 4.54073 16.5358 6.00108 17.2839 7.75679C17.3489 7.91267 17.3489 8.09316 17.2839 8.24084C15.5438 12.3265 12.4459 14.7714 8.99825 14.7714H8.99012C7.42081 14.7714 5.91654 14.2545 4.59117 13.3111L3.01372 14.9027C2.89176 15.0257 2.73726 15.0832 2.58277 15.0832C2.42828 15.0832 2.26566 15.0257 2.15182 14.9027C1.94854 14.6976 1.91602 14.3694 2.07864 14.1315L2.10303 14.0987L14.129 1.9646L14.129 1.96459C14.1453 1.94818 14.1615 1.93178 14.1697 1.91537L14.1697 1.91536C14.1859 1.89896 14.2022 1.88255 14.2103 1.86614L14.9746 1.09495C15.2186 0.857023 15.6007 0.857023 15.8366 1.09495C16.0805 1.33287 16.0805 1.72667 15.8366 1.9646L14.3567 3.45777ZM5.74799 8.00611C5.74799 8.21942 5.77238 8.43273 5.8049 8.62964L2.79638 11.6652C1.98326 10.7135 1.27585 9.56492 0.714803 8.24404C0.649753 8.09636 0.649753 7.91587 0.714803 7.75999C2.45487 3.67428 5.55284 1.23762 8.99232 1.23762H9.00045C10.1632 1.23762 11.2934 1.51656 12.3342 2.04163L9.61841 4.78185C9.42327 4.74903 9.21186 4.72442 9.00045 4.72442C7.20346 4.72442 5.74799 6.19298 5.74799 8.00611Z" fill="white"/>
</g>
</svg>
