<svg width="31" height="34" viewBox="0 0 31 34" fill="none" xmlns="http://www.w3.org/2000/svg">
  <path fill-rule="evenodd" clip-rule="evenodd" d="M22.6835 1.61436L22.6851 2.86373C27.2762 3.22355 30.309 6.35198 30.3139 11.1496L30.332 25.1925C30.3386 30.4233 27.0524 33.6416 21.785 33.65L8.9185 33.6666C3.68402 33.6733 0.356726 30.3783 0.350143 25.1326L0.332042 11.2545C0.32546 6.42528 3.25124 3.30518 7.84232 2.88372L7.84067 1.63435C7.83903 0.901381 8.38206 0.34999 9.1061 0.34999C9.83014 0.348325 10.3732 0.898049 10.3748 1.63102L10.3765 2.7971L20.151 2.78377L20.1494 1.61769C20.1477 0.884722 20.6907 0.334998 21.4148 0.333332C22.1224 0.331666 22.6819 0.881391 22.6835 1.61436ZM2.86783 11.7693L27.7814 11.736V11.1529C27.7107 7.57138 25.9137 5.69232 22.6884 5.41246L22.6901 6.69515C22.6901 7.41146 22.1322 7.9795 21.4247 7.9795C20.7006 7.98117 20.1559 7.41479 20.1559 6.69848L20.1543 5.34915L10.3798 5.36248L10.3814 6.71014C10.3814 7.42811 9.84001 7.9945 9.11597 7.9945C8.39193 7.99616 7.84726 7.43145 7.84726 6.71347L7.84561 5.43078C4.6368 5.75229 2.86125 7.63801 2.86619 11.2512L2.86783 11.7693ZM20.7319 19.3405V19.3588C20.7483 20.1251 21.3736 20.7065 22.1322 20.6898C22.8727 20.6715 23.4635 20.0368 23.447 19.2705C23.4125 18.5376 22.8184 17.9395 22.0796 17.9412C21.3226 17.9578 20.7302 18.5742 20.7319 19.3405ZM22.0911 26.8201C21.3342 26.8034 20.7237 26.1721 20.722 25.4058C20.7056 24.6395 21.3128 24.0048 22.0697 23.9865H22.0862C22.8596 23.9865 23.4865 24.6178 23.4865 25.4008C23.4882 26.1837 22.8629 26.8184 22.0911 26.8201ZM13.9522 19.3671C13.9851 20.1334 14.6121 20.7315 15.3691 20.6981C16.1095 20.6632 16.7003 20.0301 16.6674 19.2639C16.6493 18.5142 16.0404 17.9312 15.2999 17.9329C14.543 17.9662 13.9506 18.6009 13.9522 19.3671ZM15.3756 26.7451C14.6187 26.7784 13.9934 26.1804 13.9588 25.4141C13.9588 24.6478 14.5496 24.0148 15.3065 23.9798C16.047 23.9782 16.6575 24.5612 16.674 25.3092C16.7085 26.0771 16.1161 26.7101 15.3756 26.7451ZM7.17258 19.4254C7.20549 20.1917 7.83245 20.7914 8.5894 20.7564C9.3299 20.7231 9.92065 20.0884 9.88609 19.3222C9.86963 18.5725 9.26078 17.9895 8.51864 17.9912C7.76169 18.0245 7.17094 18.6592 7.17258 19.4254ZM8.59598 26.7534C7.83903 26.7884 7.21372 26.1887 7.17917 25.4224C7.17752 24.6562 7.76992 24.0215 8.52687 23.9882C9.26736 23.9865 9.87786 24.5695 9.89432 25.3192C9.92887 26.0854 9.33812 26.7201 8.59598 26.7534Z" fill="white"/>
</svg>
