<svg width="34" height="34" viewBox="0 0 34 34" fill="none" xmlns="http://www.w3.org/2000/svg">
  <path fill-rule="evenodd" clip-rule="evenodd" d="M9.21732 0.333496H24.7673C30.434 0.333496 33.6673 3.5335 33.6673 9.21683V24.7835C33.6673 30.4335 30.4507 33.6668 24.784 33.6668H9.21732C3.53398 33.6668 0.333984 30.4335 0.333984 24.7835V9.21683C0.333984 3.5335 3.53398 0.333496 9.21732 0.333496ZM18.3673 18.3835H23.1006C23.8673 18.3668 24.484 17.7502 24.484 16.9835C24.484 16.2168 23.8673 15.6002 23.1006 15.6002H18.3673V10.9002C18.3673 10.1335 17.7507 9.51683 16.984 9.51683C16.2173 9.51683 15.6007 10.1335 15.6007 10.9002V15.6002H10.884C10.5173 15.6002 10.1673 15.7502 9.90065 16.0002C9.65065 16.2668 9.50065 16.6152 9.50065 16.9835C9.50065 17.7502 10.1173 18.3668 10.884 18.3835H15.6007V23.1002C15.6007 23.8668 16.2173 24.4835 16.984 24.4835C17.7507 24.4835 18.3673 23.8668 18.3673 23.1002V18.3835Z" fill="white"/>
</svg>
