<svg width="34" height="26" viewBox="0 0 34 26" fill="none" xmlns="http://www.w3.org/2000/svg">
<path fill-rule="evenodd" clip-rule="evenodd" d="M6.85507 0.5H16.5085C20.5452 0.5 23.3636 3.28173 23.3636 7.26819V18.7318C23.3636 22.7183 20.5452 25.5 16.5085 25.5H6.85507C2.81836 25.5 0 22.7183 0 18.7318V7.26819C0 3.28173 2.81836 0.5 6.85507 0.5ZM29.93 4.46497C30.6616 4.09272 31.52 4.13164 32.2183 4.57157C32.9167 5.00981 33.3333 5.77123 33.3333 6.60372V19.3973C33.3333 20.2315 32.9167 20.9912 32.2183 21.4294C31.8366 21.668 31.41 21.7898 30.98 21.7898C30.6216 21.7898 30.2633 21.7052 29.9283 21.5343L27.4599 20.289C26.5466 19.8254 25.9799 18.8948 25.9799 17.8609V8.13841C25.9799 7.10288 26.5466 6.17225 27.4599 5.71201L29.93 4.46497Z" fill="white"/>
</svg>
